<?xml version="1.0" encoding="iso-8859-1"?>
<!-- Generator: Adobe Illustrator 19.0.0, SVG Export Plug-In . SVG Version: 6.00 Build 0)  -->
<svg version="1.1" id="Layer_1" xmlns="http://www.w3.org/2000/svg" xmlns:xlink="http://www.w3.org/1999/xlink" x="0px" y="0px"
	height="20" width="20" viewBox="0 0 330 330" style="enable-background:new 0 0 330 330;" xml:space="preserve">
<g>
	<path style="fill:#75B26D;" d="M304.393,4.394L280.317,28.47c4.199,2.828,8.121,6.007,11.662,9.551
		c3.538,3.536,6.719,7.457,9.548,11.666l24.078-24.079c5.859-5.858,5.859-15.355,0-21.213C319.748-1.465,310.25-1.465,304.393,4.394
		z"/>
	<path style="fill:#689F5F;" d="M308.598,42.615c-2.828-4.209-6.01-8.129-9.547-11.666c-3.541-3.543-7.463-6.723-11.662-9.551
		C273.146,11.81,255.531,6.47,237.178,6.47c-23.393,0-44.906,8.538-60.656,24.056c-43.349,37.181-143.393,123.04-146.84,126.488
		C10.543,176.152,0.002,201.599,0,228.666c0,27.008,10.494,52.399,29.553,71.519c0.016,0.017,0.031,0.036,0.047,0.054
		c0.012,0.01,0.023,0.018,0.033,0.03c0.018,0.015,0.033,0.032,0.049,0.051c19.138,19.138,44.587,29.678,71.656,29.68
		c0.002,0,0,0,0.002,0c27.064,0,52.512-10.541,71.656-29.684c3.467-3.471,89.309-103.496,126.48-146.836
		c15.932-16.169,24.467-38.273,24.041-62.313C323.203,73.439,317.877,56.42,308.598,42.615z"/>
	<path style="fill:#75B26D;" d="M303.182,120.852c-1.75-0.937-3.712-1.542-5.816-1.719l-9.348-0.782l-24.315-2.037l-2.821-33.667
		c-0.608-7.296-6.399-13.085-13.696-13.695l-33.66-2.816l-2.01-23.99l-0.781-9.329c-0.18-2.146-0.808-4.144-1.777-5.919
		c-2.754-5.057-8.303-8.285-14.42-7.777c-8.256,0.691-14.389,7.943-13.697,16.199l0.881,10.51l1.543,18.44l1.425,17.01
		c0.61,7.298,6.399,13.086,13.696,13.696l14.086,1.179L41.348,267.276l-10.795,10.796l-0.953,0.952
		c-5.84,5.84-5.856,15.298-0.047,21.16c0.016,0.017,0.031,0.036,0.047,0.054c0.012,0.01,0.023,0.018,0.033,0.03
		c2.926,2.907,6.748,4.362,10.575,4.362c3.837,0,7.677-1.465,10.604-4.393l0.924-0.924l10.789-10.789l171.16-171.161l1.18,14.09
		c0.611,7.298,6.4,13.087,13.695,13.697l17.293,1.448l18.438,1.544l10.57,0.885c0.426,0.036,0.849,0.053,1.269,0.055
		c7.718-0.001,14.274-5.921,14.931-13.751C311.576,129.181,308.299,123.59,303.182,120.852z"/>
</g>
<g>
</g>
<g>
</g>
<g>
</g>
<g>
</g>
<g>
</g>
<g>
</g>
<g>
</g>
<g>
</g>
<g>
</g>
<g>
</g>
<g>
</g>
<g>
</g>
<g>
</g>
<g>
</g>
<g>
</g>
</svg>
