<?xml version="1.0" encoding="iso-8859-1"?>
<!-- Generator: Adobe Illustrator 19.0.0, SVG Export Plug-In . SVG Version: 6.00 Build 0)  -->
<svg version="1.1" id="Layer_1" xmlns="http://www.w3.org/2000/svg" xmlns:xlink="http://www.w3.org/1999/xlink" x="0px" y="0px"
	 height="20" width="20" viewBox="0 0 511.999 511.999" style="enable-background:new 0 0 511.999 511.999;" xml:space="preserve">
<path style="fill:#36C63F;" d="M256,429.882c-201.562-194.096,0-418.053,0-418.053S457.562,235.786,256,429.882z"/>
<path style="fill:#231F20;" d="M339.135,145.699C313.716,64.736,263.987,8.874,261.882,6.535L256,0l-5.882,6.535
	c-2.105,2.338-51.835,58.201-77.254,139.164c-15.028,47.868-18.28,94.465-9.664,138.497c10.58,54.076,39.142,104.193,84.886,149.014
	v78.789h15.827V433.21c45.744-44.822,74.306-94.937,84.886-149.014C357.414,240.164,354.163,193.566,339.135,145.699z
	 M333.212,281.445c-9.118,46.294-32.404,89.659-69.299,129.139V298.785l42.474-42.473l-11.191-11.19l-31.282,31.283v-92.875h-15.827
	v55.549l-31.283-31.283l-11.19,11.19l42.473,42.474v74.668l-23.818-23.819l-11.19,11.191l35.009,35.009v52.076
	c-36.895-39.481-60.182-82.846-69.3-129.14c-8.144-41.352-5.107-85.266,9.026-130.524C207.1,89.164,242.127,41.491,256.001,24.181
	c13.875,17.312,48.9,64.984,68.187,126.741C338.32,196.178,341.357,240.092,333.212,281.445z"/>
<rect x="248.084" y="153.668" style="fill:#FFFFFF;" width="15.826" height="14.929"/>
<rect x="248.084" y="123.81" style="fill:#231F20;" width="15.826" height="14.929"/>
<g>
</g>
<g>
</g>
<g>
</g>
<g>
</g>
<g>
</g>
<g>
</g>
<g>
</g>
<g>
</g>
<g>
</g>
<g>
</g>
<g>
</g>
<g>
</g>
<g>
</g>
<g>
</g>
<g>
</g>
</svg>
