<svg xmlns="http://www.w3.org/2000/svg" height="20" width="20" viewBox="0 0 409.6 409.6"><g fill="#f6c358"><path d="M0 230.888C27.648 272.36 69.12 304.616 120.832 321c119.296 37.376 238.592-23.552 269.824-145.408 0 0 4.096-31.744-.512-57.344l-20.992-6.656S256 282.6 17.92 203.24L.512 212.968 0 230.888z"/><path d="M46.592 331.752c38.912 31.232 88.064 50.176 141.824 50.176 124.928 0 220.672-93.696 214.528-219.136 0 0-5.632-31.744-17.408-54.272H363.52s-57.344 197.12-308.224 192l-13.824 14.336 5.12 16.896z"/></g><path d="M364.032 108.008s12.288-73.216 6.656-78.336c0 0 20.992-11.264 38.912 19.968 0 0-27.136 24.064-23.552 58.368h-22.016z" fill="#3ea69b"/><path d="M376.32 108.008h-12.8s-57.344 197.12-308.224 192l-13.824 14.336c.512 0 322.56 109.568 334.848-206.336z" fill="#fcd462"/><path d="M376.32 108.008h-12.8s12.288-73.216 6.656-78.336c0 0 9.728-5.12 21.504 1.024.512.512-12.288 43.52-15.36 77.312z" fill="#44c4a1"/></svg>