<svg xmlns="http://www.w3.org/2000/svg" viewBox="0 0 56.085 56.085"><path d="M36.543 20.56s1.44-1.378 4.622-2.728c3.011-1.278 5.8-3.071 8.101-5.395.943-.952 1.844-2.03 2.533-3.188 0 0 .598-1.562 3.011-1.082 0 0 1.318-2.093-2.378-5.789L50.054 0 33.018 17.035l3.525 3.525z" fill="#a46f3e"/><circle cx="38.893" cy="15.273" r="1.246" fill="#d2d5d7"/><circle cx="49.466" cy="5.874" r="1.246" fill="#d2d5d7"/><path d="M2.03 54.125c1.667 2.176 4.674 2.54 6.789 1.09a7.912 7.912 0 0 1 1.559-.857c.912-.361 1.604-.968 1.22-2.351-.499-1.797.552-2.848 2.35-2.35 1.797.499 2.848-.552 2.35-2.35-.499-1.797.552-2.848 2.35-2.35 1.797.499 2.848-.552 2.35-2.35-.499-1.797.552-2.848 2.35-2.35 1.797.499 2.848-.552 2.35-2.35-.499-1.797.552-2.848 2.35-2.35 1.797.499 2.848-.552 2.35-2.35-.499-1.797.552-2.848 2.35-2.35 1.797.499 2.848-.552 2.35-2.35-.499-1.797.552-2.848 2.35-2.35 1.284.356 2.187-.078 2.416-1.011.166-.675-.112-1.384-.604-1.876l-6.239-6.239L2.604 47.449c-1.789 1.79-2.113 4.668-.574 6.676z" fill="#d2d5d7"/></svg>