<svg xmlns="http://www.w3.org/2000/svg" viewBox="0 0 49 49"><path d="M9.5 27V5.918c0-1.362.829-2.587 2.094-3.093C12.642 2.406 13.5 1.14 13.5.011V0h22v.011c0 1.129.858 2.395 1.906 2.814A3.33 3.33 0 0 1 39.5 5.918V27v-5 21.082a3.331 3.331 0 0 1-2.094 3.093c-1.048.419-1.906 1.686-1.906 2.814V49h-22v-.011c0-1.129-.858-2.395-1.906-2.814A3.33 3.33 0 0 1 9.5 43.082V22" fill="#003879"/><circle cx="24.5" cy="26" r="11" fill="#f9d70b"/><path d="M24.308 26.146a7.385 7.385 0 0 0-6.558-7.341 9.82 9.82 0 0 0-3.296 7.341c0 5.442 4.412 9.854 9.854 9.854a9.806 9.806 0 0 0 6.558-2.513 7.385 7.385 0 0 1-6.558-7.341z" fill="#ed3f32"/><path d="M18.5 7h-5a1 1 0 1 1 0-2h5a1 1 0 1 1 0 2zm17 0h-13a1 1 0 1 1 0-2h13a1 1 0 1 1 0 2z" fill="#155ba0"/><path d="M18.5 45h-5a1 1 0 1 1 0-2h5a1 1 0 1 1 0 2zm17 0h-13a1 1 0 1 1 0-2h13a1 1 0 1 1 0 2z" fill="#0a0e30"/></svg>