<svg xmlns="http://www.w3.org/2000/svg" viewBox="0 0 51.906 51.906"><path fill="#b27c4f" d="M7.88 49L.904 46V0H7.88z"/><path d="M15.431 34.121v-.104c0-2.371 7.963-4.293 17.785-4.293 1.028 0 2.03.026 3.01.066l2.677-10.04V0H7.911v49h15.578c-4.849-3.177-8.058-8.65-8.058-14.879z" fill="#a46f3e"/><path d="M20.904 23.228h-3.658a5.342 5.342 0 0 1-5.342-5.342v-3.658h3.658a5.342 5.342 0 0 1 5.342 5.342v3.658zm4 0h3.658a5.342 5.342 0 0 0 5.342-5.342v-3.658h-3.658a5.342 5.342 0 0 0-5.342 5.342v3.658z" fill="#f9ea80"/><path d="M22.897 18.728l2.587-2.587a5.341 5.341 0 0 0 0-7.554L22.897 6 20.31 8.587a5.341 5.341 0 0 0 0 7.554l2.587 2.587z" fill="#f9ea80"/><path d="M40.154 30.063L43.904 16c0-.55-.45-1-1-1h-2c-.55 0-1 .45-1 1l-3.677 13.79a71.866 71.866 0 0 0-3.01-.066c-9.823 0-17.785 1.922-17.785 4.293v.104c0 9.823 7.963 17.785 17.785 17.785 9.823 0 17.785-7.963 17.785-17.785v-.104c0-1.777-4.472-3.301-10.848-3.954z" fill="#efe7d0"/><path d="M40.154 30.063L43.904 16c0-.55-.45-1-1-1h-2c-.55 0-1 .45-1 1l-3.677 13.79a71.866 71.866 0 0 0-3.01-.066c-9.823 0-17.785 1.922-17.785 4.293 0 2.371 7.963 4.293 17.785 4.293 9.823 0 17.785-1.922 17.785-4.293 0-1.777-4.472-3.301-10.848-3.954z" fill="#fff5bb"/><path d="M40.154 30.063L43.904 16c0-.55-.45-1-1-1h-2c-.55 0-1 .45-1 1l-3.677 13.79-.656 2.502 3.875.708.708-2.937z" fill="#d2d5d7"/><path d="M28.904 35h-2a1.001 1.001 0 0 0-2 0h-2c0-1.654 1.346-3 3-3s3 1.346 3 3zm8 1h-2a1.001 1.001 0 0 0-2 0h-2c0-1.654 1.346-3 3-3s3 1.346 3 3z" fill="#ed8f20"/></svg>