<svg xmlns="http://www.w3.org/2000/svg" viewBox="0 0 55.311 55.311"><path d="M18.833 32.412a179.65 179.65 0 0 1-1.959 1.904 15.866 15.866 0 0 1-2.597 1.994c-2.619 1.628-9.232 6.259-11.382 9.08-1.753 2.301-.594 3.726.542 4.477.408.27.787.578 1.131.921.343.344.651.723.921 1.131.751 1.135 2.177 2.294 4.477.542 2.821-2.149 7.452-8.763 9.08-11.382a15.895 15.895 0 0 1 1.994-2.597c.605-.634 1.233-1.273 1.871-1.914l-4.078-4.156z" fill="#d2d5d7"/><path d="M22.911 36.568C35.293 24.12 53.19 10.652 53.19 10.652l-7.778-7.778S31.334 20.095 18.833 32.412l4.078 4.156z" fill="#659c35"/><path d="M25.235 38.937c.105-.123.191-.262.302-.381 12.224-13.071 29.774-21.541 29.774-21.541l-4.522-4.522C45.502 16.591 32.54 26.885 22.91 36.567l2.325 2.37z" fill="#88c057"/><path d="M22.909 36.567c-.639.642-1.263 1.281-1.869 1.916a15.866 15.866 0 0 0-1.994 2.597c-1.58 2.542-5.984 8.834-8.822 11.168l.692.677c1.183 1.567 3.201 3.319 5.627 1.691 2.975-1.995 5.737-10.479 7.138-13.324.424-.862.95-1.642 1.554-2.354l-2.326-2.371z" fill="#efefef"/><path d="M16.522 30.057a11.37 11.37 0 0 1-2.547 1.707C11.129 33.165 2.646 35.927.651 38.902c-1.627 2.426.124 4.443 1.691 5.627l.699.684c2.278-2.834 8.67-7.309 11.236-8.904a15.895 15.895 0 0 0 2.597-1.994c.647-.618 1.302-1.254 1.96-1.903l-2.312-2.355z" fill="#e6e6e6"/><path d="M18.834 32.413c9.72-9.577 20.388-22.114 24.655-27.22L38.341.045s-8.56 17.64-21.631 29.864c-.058.054-.128.096-.187.148l2.311 2.356z" fill="#436b1c"/><path d="M8 51.266a.997.997 0 0 1-.707-.293l-3-3a.999.999 0 1 1 1.414-1.414l3 3A.999.999 0 0 1 8 51.266zm-4-9a.997.997 0 0 1-.707-.293l-1-1a.999.999 0 1 1 1.414-1.414l1 1A.999.999 0 0 1 4 42.266zm11 11a.997.997 0 0 1-.707-.293l-1-1a.999.999 0 1 1 1.414-1.414l1 1A.999.999 0 0 1 15 53.266z" fill="#fff"/><path fill="#88c057" d="M21.569 35.201L49.654 7.116 48.24 5.702 20.169 33.773z"/><path d="M25.612 40.643a.997.997 0 0 1-.707-.293l-9.899-9.899a.999.999 0 1 1 1.414-1.414l9.899 9.899a.999.999 0 0 1-.707 1.707zm-2.121 2.121a.997.997 0 0 1-.707-.293l-9.899-9.899a.999.999 0 1 1 1.414-1.414l9.899 9.899a.999.999 0 0 1-.707 1.707z" fill="#a46f3e"/></svg>