<svg xmlns="http://www.w3.org/2000/svg" viewBox="0 0 54.5 54.5"><g fill="#546a79"><path d="M32.25 4.5h-16a4 4 0 0 1 4-4h8a4 4 0 0 1 4 4z"/><path d="M32.75 5h-17v-.5c0-2.481 2.019-4.5 4.5-4.5h8c2.481 0 4.5 2.019 4.5 4.5V5zM16.786 4h14.929a3.505 3.505 0 0 0-3.464-3h-8a3.505 3.505 0 0 0-3.465 3z"/></g><path d="M36.7 54.5H11.8c-2.805 0-4.851-2.654-4.137-5.367L12.25 35.5h24l4.588 13.633c.713 2.713-1.333 5.367-4.138 5.367z" fill="#d2d5d7"/><path fill="#e6e6e6" d="M14.25 31.5h20v4h-20z"/><path d="M35.25 10.5a3 3 0 0 1 3-3h3.333l.667-3H5.387c-1.18 0-2.137.957-2.137 2.137 0 .983.678 1.818 1.629 2.069C13.514 10.985 12.25 31.5 12.25 31.5h24l4-18h-2a3 3 0 0 1-3-3z" fill="#d2d5d7"/><path d="M12.432 48.5a1.002 1.002 0 0 1-.948-1.32l2.692-8a.999.999 0 0 1 1.267-.629c.523.177.805.744.629 1.268l-2.692 8c-.141.417-.53.681-.948.681zm23.634-.005c-.418 0-.807-.264-.948-.681l-2.69-7.995a1.001 1.001 0 0 1 1.896-.639l2.69 7.995a1.002 1.002 0 0 1-.948 1.32zM33.042 28.5a1 1 0 0 1-.977-1.216l2.223-10c.12-.539.654-.873 1.193-.76a1 1 0 0 1 .759 1.193l-2.223 10a1 1 0 0 1-.975.783zm-15.57 0a1 1 0 0 1-.985-.833l-3.223-19a1 1 0 0 1 .819-1.153 1.009 1.009 0 0 1 1.153.819l3.223 19a1 1 0 0 1-.987 1.167zm3.778 20.002a1 1 0 0 1-1-1V39.5a1 1 0 1 1 2 0v8.002a1 1 0 0 1-1 1zm7 0a1 1 0 0 1-1-1V39.5a1 1 0 1 1 2 0v8.002a1 1 0 0 1-1 1zm-6-20.002a1 1 0 0 1-1-1v-19a1 1 0 1 1 2 0v19a1 1 0 0 1-1 1zm6 0a1 1 0 0 1-1-1v-19a1 1 0 1 1 2 0v19a1 1 0 0 1-1 1zm-20.564 22a.141.141 0 0 0-.14.152C7.758 52.756 9.527 54.5 11.8 54.5h24.9c2.273 0 4.042-1.744 4.254-3.848a.14.14 0 0 0-.14-.152H7.686z" fill="#e6e6e6"/><path d="M45.25 7.5h-7a3 3 0 1 0 0 6h5.259c.962 0 1.741.78 1.741 1.741V24.5a3 3 0 1 0 6 0v-11a6 6 0 0 0-6-6z" fill="#546a79"/></svg>