<svg xmlns="http://www.w3.org/2000/svg" height="20" width="20" viewBox="0 0 330 330"><path d="M304.393 4.394L280.317 28.47c4.199 2.828 8.121 6.007 11.662 9.551 3.538 3.536 6.719 7.457 9.548 11.666l24.078-24.079c5.859-5.858 5.859-15.355 0-21.213-5.857-5.86-15.355-5.86-21.212-.001z" fill="#75b26d"/><path d="M308.598 42.615c-2.828-4.209-6.01-8.129-9.547-11.666-3.541-3.543-7.463-6.723-11.662-9.551C273.146 11.81 255.531 6.47 237.178 6.47c-23.393 0-44.906 8.538-60.656 24.056-43.349 37.181-143.393 123.04-146.84 126.488C10.543 176.152.002 201.599 0 228.666c0 27.008 10.494 52.399 29.553 71.519l.047.054c.012.01.023.018.033.03a.396.396 0 0 1 .049.051c19.138 19.138 44.587 29.678 71.656 29.68h.002c27.064 0 52.512-10.541 71.656-29.684 3.467-3.471 89.309-103.496 126.48-146.836 15.932-16.169 24.467-38.273 24.041-62.313-.314-17.728-5.64-34.747-14.919-48.552z" fill="#689f5f"/><path d="M303.182 120.852a14.938 14.938 0 0 0-5.816-1.719l-9.348-.782-24.315-2.037-2.821-33.667a14.995 14.995 0 0 0-13.696-13.695l-33.66-2.816-2.01-23.99-.781-9.329a14.92 14.92 0 0 0-1.777-5.919c-2.754-5.057-8.303-8.285-14.42-7.777-8.256.691-14.389 7.943-13.697 16.199l.881 10.51 1.543 18.44 1.425 17.01a14.996 14.996 0 0 0 13.696 13.696l14.086 1.179L41.348 267.276l-10.795 10.796-.953.952c-5.84 5.84-5.856 15.298-.047 21.16l.047.054c.012.01.023.018.033.03a14.955 14.955 0 0 0 10.575 4.362 14.95 14.95 0 0 0 10.604-4.393l.924-.924 10.789-10.789 171.16-171.161 1.18 14.09a14.998 14.998 0 0 0 13.695 13.697l17.293 1.448 18.438 1.544 10.57.885c.426.036.849.053 1.269.055 7.718-.001 14.274-5.921 14.931-13.751.515-6.15-2.762-11.741-7.879-14.479z" fill="#75b26d"/></svg>