<svg xmlns="http://www.w3.org/2000/svg" viewBox="0 0 50.382 50.382"><path d="M.191 31.434l9.263 17.032a2.99 2.99 0 0 0 2.79 1.916h25.894a2.99 2.99 0 0 0 2.79-1.916l9.263-17.032c-2.764-2.736-7.236-2.736-10 0a7.056 7.056 0 0 0-9.949 0 7.056 7.056 0 0 0-9.949 0c-2.778-2.736-7.273-2.736-10.051 0-2.778-2.736-7.273-2.736-10.051 0z" fill="#fbd490"/><path d="M39.634 19.509a6.467 6.467 0 0 0 .557-2.626 6.5 6.5 0 0 0-6.5-6.5c-.287 0-.665.053-1.025.119a7.366 7.366 0 0 0 .451-2.525c0-4.41-3.058-7.977-6.836-7.977h-1.139c-3.779 0-6.837 3.567-6.837 7.976 0 .887.164 1.734.45 2.522a7.014 7.014 0 0 0-1.063-.116 6.5 6.5 0 0 0-5.991 9.025c-4.741.256-8.509 4.171-8.509 8.975 0 .431.041.851.099 1.265 2.393-.662 5.067-.07 6.951 1.786 2.778-2.736 7.273-2.736 10.051 0a7.056 7.056 0 0 1 9.949 0 7.056 7.056 0 0 1 9.949 0 7.11 7.11 0 0 1 6.901-1.79 9.04 9.04 0 0 0 .099-1.262c0-4.477-3.274-8.181-7.557-8.872z" fill="#f9f2e8"/><path d="M14.191 47.383a1 1 0 0 1-.964-.737l-3-11a1.001 1.001 0 0 1 1.93-.526l3 11a1.001 1.001 0 0 1-.966 1.263zm22.001-.001a1 1 0 0 1-.966-1.263l3-10.999a1 1 0 0 1 1.93.526l-3 10.999a1 1 0 0 1-.964.737zm-7 0a1 1 0 0 1-.997-1.091l1-10.999a1.001 1.001 0 0 1 1.992.182l-1 10.999a1 1 0 0 1-.995.909zm-8.002 0a1 1 0 0 1-.995-.909l-1-10.999a1 1 0 0 1 1.992-.182l1 10.999a1 1 0 0 1-.997 1.091z" fill="#d8a65d"/><path d="M26.532 19.895a1 1 0 0 1-.261-1.965l4.316-1.168a1 1 0 0 1 .523 1.93l-4.316 1.168a.983.983 0 0 1-.262.035z" fill="#a4e869"/><path d="M13.191 25.607a1 1 0 0 1-.316-.052l-3-1a.999.999 0 1 1 .633-1.897l3 1a.999.999 0 0 1-.317 1.949z" fill="#e53384"/><path d="M20.817 22.794l-.061-.002a.998.998 0 0 1-.938-1.058l.084-1.412c.032-.552.497-.958 1.058-.938a.998.998 0 0 1 .938 1.058l-.084 1.412a1 1 0 0 1-.997.94z" fill="#ed7161"/><path d="M39.191 27.383a.997.997 0 0 1-.707-.293l-1-1a.999.999 0 1 1 1.414-1.414l1 1a.999.999 0 0 1-.707 1.707z" fill="#ed3f32"/><path d="M29.691 27.382a.997.997 0 0 1-.707-.293l-1-1a.999.999 0 1 1 1.414-1.414l1 1a.999.999 0 0 1-.707 1.707z" fill="#f9d70b"/><path d="M27.004 10.065a1 1 0 0 1-.969-.758l-1-4a1 1 0 1 1 1.941-.484l1 4a1 1 0 0 1-.972 1.242z" fill="#6f58a8"/><path d="M22.191 15.61a.997.997 0 0 1-.707-.293l-1-1a.999.999 0 1 1 1.414-1.414l1 1a.999.999 0 0 1-.707 1.707z" fill="#3dabef"/></svg>