<svg xmlns="http://www.w3.org/2000/svg" viewBox="0 0 58 58"><path d="M22.489 31a1 1 0 0 1-1-1V1a1 1 0 1 1 2 0v29a1 1 0 0 1-1 1z" fill="#d2d5d7"/><path d="M22.489 58c-1.65 0-3-1.35-3-3V33c0-1.65 1.35-3 3-3s3 1.35 3 3v22c0 1.65-1.35 3-3 3z" fill="#a46f3e"/><path d="M22.489 36c-.55 0-1-.45-1-1s.45-1 1-1 1 .45 1 1-.45 1-1 1zm0 4c-.55 0-1-.45-1-1s.45-1 1-1 1 .45 1 1-.45 1-1 1zm0-21c-2.757 0-5-2.243-5-5V1a1 1 0 1 1 2 0v13c0 1.654 1.346 3 3 3s3-1.346 3-3V1a1 1 0 1 1 2 0v13c0 2.757-2.243 5-5 5zM37.5 32c3.078-3.078 3-10.268 3-18s.542-13-6-13v31h3z" fill="#d2d5d7"/><path d="M36.5 58c-1.65 0-3-1.35-3-3V33c0-1.65 1.35-3 3-3s3 1.35 3 3v22c0 1.65-1.35 3-3 3z" fill="#a46f3e"/><path d="M36.5 36c-.55 0-1-.45-1-1s.45-1 1-1 1 .45 1 1-.45 1-1 1zm0 4c-.55 0-1-.45-1-1s.45-1 1-1 1 .45 1 1-.45 1-1 1z" fill="#d2d5d7"/></svg>