<svg xmlns="http://www.w3.org/2000/svg" viewBox="0 0 58 58"><path d="M49.868 52H49l-2.871-19.141a.748.748 0 0 1 .739-.859c1.317 0 2.578-.78 2.978-2.035A3.01 3.01 0 0 0 47 26H11.132c-1.458 0-2.799.982-3.075 2.414C7.689 30.318 9 32 11 32h.099c.474 0 .837.422.767.891L9 52h-.868c-1.451 0-2.789.972-3.071 2.395A3.007 3.007 0 0 0 8 58h42a3.008 3.008 0 0 0 2.94-3.605C52.657 52.972 51.32 52 49.868 52z" fill="#874f31"/><path d="M29 11c-8.837 0-16 6.164-16 15h32c0-8.836-7.163-15-16-15z" fill="#efe8d5"/><path d="M29 12a1 1 0 0 1-1-1c0-1.559.484-3 4-3h13.5c.941 0 2.231 0 2.489-.152C47.978 7.814 48 7.509 48 7a1 1 0 1 1 2 0c0 3-1.41 3-4.5 3H32c-2 0-2 .293-2 1a1 1 0 0 1-1 1z" fill="#d2d5d7"/><circle cx="48.5" cy="3.5" r="3.5" fill="#4c312c"/><path d="M14.875 45L14 52h30l-.875-7zm28-2L42 36H16l-.875 7z" fill="#af765d"/><path d="M31 40.292h-5a1 1 0 1 1 0-2h5a1 1 0 1 1 0 2zm0 9.208h-5a1 1 0 1 1 0-2h5a1 1 0 1 1 0 2z" fill="#d2d5d7"/><path d="M18.999 20.616a1 1 0 0 1-.91-1.412 7.523 7.523 0 0 1 2.479-3.015 1 1 0 0 1 1.175 1.619 5.544 5.544 0 0 0-1.832 2.22 1 1 0 0 1-.912.588zm7-4.409a1 1 0 0 1-.145-1.99A21.702 21.702 0 0 1 29 14a1 1 0 1 1 0 2c-1.013 0-1.973.066-2.854.196a1.039 1.039 0 0 1-.147.011z" fill="#fff"/><path d="M36 33h-6a1 1 0 1 1 0-2h6a1 1 0 1 1 0 2zm6 0h-2a1 1 0 1 1 0-2h2a1 1 0 1 1 0 2z" fill="#a46f3e"/></svg>