<svg xmlns="http://www.w3.org/2000/svg" viewBox="0 0 55 55"><path d="M51 33.646H3c-1.1 0-2-.9-2-2s.9-2 2-2h48c1.1 0 2 .9 2 2s-.9 2-2 2zm-1-8H2c-1.1 0-2-.9-2-2s.9-2 2-2h48c1.1 0 2 .9 2 2s-.9 2-2 2z" fill="#b85133"/><path d="M53 29.646H4c-1.1 0-2-.9-2-2s.9-2 2-2h49c1.1 0 2 .9 2 2s-.9 2-2 2z" fill="#6a3311"/><path d="M5.444 17.354v3.666a2.75 2.75 0 0 0 5.411.697c.026-.098.153-.098.178 0a2.752 2.752 0 0 0 5.322 0c.026-.098.153-.098.178 0a2.752 2.752 0 0 0 5.322 0c.026-.098.153-.098.178 0a2.752 2.752 0 0 0 5.322 0c.026-.098.153-.098.178 0a2.752 2.752 0 0 0 5.322 0c.026-.098.153-.098.178 0a2.752 2.752 0 0 0 5.322 0c.026-.098.153-.098.178 0a2.752 2.752 0 0 0 5.322 0c.026-.098.153-.098.178 0a2.75 2.75 0 0 0 5.411-.697v-3.666h-44z" fill="#88c057"/><path d="M49 37.646V33.98a2.75 2.75 0 0 0-5.411-.697c-.026.098-.153.098-.178 0a2.752 2.752 0 0 0-5.322 0c-.026.098-.153.098-.178 0a2.752 2.752 0 0 0-5.322 0c-.026.098-.153.098-.178 0a2.752 2.752 0 0 0-5.322 0c-.026.098-.153.098-.178 0a2.752 2.752 0 0 0-5.322 0c-.026.098-.153.098-.178 0a2.752 2.752 0 0 0-5.322 0c-.026.098-.153.098-.178 0a2.752 2.752 0 0 0-5.322 0c-.026.098-.153.098-.178 0A2.75 2.75 0 0 0 5 33.98v3.666h44z" fill="#659c35"/><path d="M27.444 7.354h11c8.236 0 11.942 5.996 13.318 9.134.714 1.629-.238 3.594-1.999 3.84a2.608 2.608 0 0 1-.352.026H5.478c-.11 0-.228-.009-.352-.026-1.761-.246-2.713-2.211-1.999-3.84 1.375-3.138 5.081-9.134 13.318-9.134h10.999z" fill="#d99f4c"/><path d="M37.443 17.354c-.19 0-.383-.055-.554-.168l-3-2a1.001 1.001 0 0 1 1.11-1.664l3 2a1.001 1.001 0 0 1-.556 1.832zm-14-4a1 1 0 0 1-.893-1.447l1-2a1 1 0 1 1 1.789.895l-1 2c-.176.35-.529.552-.896.552zm-11 3a1 1 0 0 1-.893-1.447l1-2a1 1 0 0 1 1.789.895l-1 2c-.176.35-.529.552-.896.552z" fill="#efdfa0"/><path d="M49 34.646H5.068c-1.1 0-2 .9-2 2 0 0 1.81 11 12.966 11h22c11.156 0 12.966-11 12.966-11 0-1.1-.9-2-2-2z" fill="#d99f4c"/><path d="M15.033 41.646c-.19 0-.383-.055-.554-.168l-3-2a1.001 1.001 0 0 1 1.11-1.664l3 2a1.001 1.001 0 0 1-.556 1.832zm11.002 2a1 1 0 0 1-.896-.553l-1-2a1 1 0 0 1 1.789-.895l1 2a1 1 0 0 1-.893 1.448zm6.998-2.001a1 1 0 0 1-.893-1.447l1-2a1 1 0 0 1 1.789.895l-1 2c-.176.35-.529.552-.896.552z" fill="#efdfa0"/></svg>