<svg xmlns="http://www.w3.org/2000/svg" viewBox="0 0 59 59"><path d="M56 33H3c-1.65 0-3-1.35-3-3s1.35-3 3-3h53c1.65 0 3 1.35 3 3s-1.35 3-3 3z" fill="#6a3311"/><path d="M54 39H5c-1.65 0-3-1.35-3-3s1.35-3 3-3h49c1.65 0 3 1.35 3 3s-1.35 3-3 3z" fill="#8e4a28"/><g fill="#e3e82a"><path d="M32.293 31.913a1.121 1.121 0 0 1-1.586 0 3.125 3.125 0 0 0-4.414 0 1.121 1.121 0 0 1-1.586 0 3.125 3.125 0 0 0-4.414 0 1.148 1.148 0 0 1-1.586 0 3.125 3.125 0 0 0-4.414 0 1.148 1.148 0 0 1-1.586 0 3.125 3.125 0 0 0-4.414 0 1.121 1.121 0 0 1-1.586 0c-1.18-1.18-3.234-1.18-4.414 0a.999.999 0 1 0 1.414 1.414 1.121 1.121 0 0 1 1.586 0 3.125 3.125 0 0 0 4.414 0 1.121 1.121 0 0 1 1.586 0 3.125 3.125 0 0 0 4.414 0 1.148 1.148 0 0 1 1.586 0 3.125 3.125 0 0 0 4.414 0 1.148 1.148 0 0 1 1.586 0 3.125 3.125 0 0 0 4.414 0 1.121 1.121 0 0 1 1.586 0c.59.59 1.374.915 2.207.915s1.617-.325 2.207-.915a.999.999 0 1 0-1.414-1.414z"/><path d="M39.707 31.913a.999.999 0 0 0-1.414 0 1.148 1.148 0 0 1-1.586 0 3.125 3.125 0 0 0-4.414 0 .999.999 0 1 0 1.414 1.414 1.148 1.148 0 0 1 1.586 0c.608.608 1.408.913 2.207.913s1.599-.305 2.207-.913a.999.999 0 0 0 0-1.414z"/><path d="M45.707 31.913a.999.999 0 0 0-1.414 0 1.148 1.148 0 0 1-1.586 0 3.125 3.125 0 0 0-4.414 0 .999.999 0 1 0 1.414 1.414 1.148 1.148 0 0 1 1.586 0c.608.608 1.408.913 2.207.913s1.599-.305 2.207-.913a.999.999 0 0 0 0-1.414z"/><path d="M51.707 31.913a.999.999 0 0 0-1.414 0 1.148 1.148 0 0 1-1.586 0 3.125 3.125 0 0 0-4.414 0 .999.999 0 1 0 1.414 1.414 1.148 1.148 0 0 1 1.586 0c.608.608 1.408.913 2.207.913s1.599-.305 2.207-.913a.999.999 0 0 0 0-1.414z"/><path d="M57.707 31.913a.999.999 0 0 0-1.414 0 1.148 1.148 0 0 1-1.586 0 3.125 3.125 0 0 0-4.414 0 .999.999 0 1 0 1.414 1.414 1.148 1.148 0 0 1 1.586 0c.608.608 1.408.913 2.207.913s1.599-.305 2.207-.913a.999.999 0 0 0 0-1.414z"/></g><path d="M44.295 53h-29.6a6.5 6.5 0 0 1-6.171-4.457L6 40.924h46.973l-2.503 7.607A6.5 6.5 0 0 1 44.295 53z" fill="#d28f1b"/><path d="M15.555 44.092a1 1 0 1 0-1.11 1.664l3 2a1 1 0 1 0 1.11-1.664l-3-2zm8.892-.063a1 1 0 0 0-1.342.447l-1 2a1 1 0 1 0 1.789.894l1-2a.999.999 0 0 0-.447-1.341zm4.448 3.448a1 1 0 0 0-1.789.895l1 2a.999.999 0 0 0 1.342.448 1 1 0 0 0 .447-1.342l-1-2.001zm5.552-4.448a1 1 0 0 0-1.342.447l-1 2a1 1 0 1 0 1.789.894l1-2a.999.999 0 0 0-.447-1.341zm5.448 3.448a1 1 0 0 0-1.789.895l1 2a.999.999 0 0 0 1.342.448 1 1 0 0 0 .447-1.342l-1-2.001zm5.552-3.448a1 1 0 0 0-1.342.447l-1 2a1 1 0 1 0 1.789.894l1-2a.999.999 0 0 0-.447-1.341z" fill="#fcc66f"/><path d="M51 40v-2.096C51 36.852 49.769 36 48.25 36s-2.75.852-2.75 1.904c0-1.051-1.231-1.904-2.75-1.904S40 36.852 40 37.904C40 36.852 38.769 36 37.25 36s-2.75.852-2.75 1.904c0-1.051-1.231-1.904-2.75-1.904S29 36.852 29 37.904C29 36.852 27.769 36 26.25 36s-2.75.852-2.75 1.904c0-1.051-1.231-1.904-2.75-1.904S18 36.852 18 37.904C18 36.852 16.769 36 15.25 36s-2.75.852-2.75 1.904C12.5 36.852 11.269 36 9.75 36S7 36.852 7 37.904V40h44z" fill="#88c057"/><path d="M53 41v-.75c0-1.243-1.315-2.25-2.938-2.25-1.622 0-2.937 1.007-2.937 2.25 0-1.243-1.315-2.25-2.938-2.25-1.622 0-2.937 1.007-2.937 2.25 0-1.243-1.315-2.25-2.938-2.25-1.622 0-2.937 1.007-2.937 2.25 0-1.243-1.315-2.25-2.938-2.25-1.622 0-2.937 1.007-2.937 2.25 0-1.243-1.315-2.25-2.938-2.25-1.622 0-2.937 1.007-2.937 2.25 0-1.243-1.315-2.25-2.938-2.25-1.622 0-2.937 1.007-2.937 2.25 0-1.243-1.315-2.25-2.938-2.25-1.622 0-2.937 1.007-2.937 2.25 0-1.243-1.315-2.25-2.938-2.25C7.315 38 6 39.007 6 40.25V41h47z" fill="#659c35"/><path d="M54.728 27h-51a1 1 0 1 1 0-2h51a1 1 0 1 1 0 2z" fill="#f9ea80"/><path d="M53.372 25C50.875 14.119 41.139 6 29.5 6S8.125 14.119 5.628 25h47.744z" fill="#d28f1b"/><path d="M45.555 18.168l-3-2a1 1 0 0 0-1.11 1.664l3 2a1.004 1.004 0 0 0 1.387-.277c.306-.46.182-1.08-.277-1.387zm-8.108-1.063a1.001 1.001 0 0 0-1.342.447l-1 2a1 1 0 1 0 1.79.895l1-2a1.001 1.001 0 0 0-.448-1.342zm-3.552-4.552a1 1 0 0 0-1.789.895l1 2a1 1 0 1 0 1.788-.895l-.999-2zm-6.448 5.552a1.002 1.002 0 0 0-1.342.447l-1 2a1 1 0 1 0 1.79.895l1-2a1.001 1.001 0 0 0-.448-1.342zm1-9a1 1 0 0 0-1.342.447l-1 2a1 1 0 1 0 1.79.895l1-2a1.001 1.001 0 0 0-.448-1.342zm-7.552 5.448a1 1 0 0 0-1.789.895l1 2a1 1 0 1 0 1.788-.895l-.999-2zm-4.448 3.552a1.002 1.002 0 0 0-1.342.447l-1 2a1 1 0 1 0 1.79.895l1-2a1.001 1.001 0 0 0-.448-1.342z" fill="#efdfa0"/><path fill="#f9ea80" d="M41.796 32.229L37 25.998h9.593z"/></svg>