<svg xmlns="http://www.w3.org/2000/svg" viewBox="0 0 58.175 58.175"><path d="M17.222 17.309L27.406 7.125c10.329-10.329 17.99-6.02 17.99-6.02.598.598.255 1.921-.764 2.94L24.295 24.382 3.957 44.72c-1.018 1.018-2.341 1.362-2.94.764 0 0-4.309-7.66 6.02-17.99l10.185-10.185zM41.31 39.898l-10.07 10.07c-10.213 10.213-17.854 5.884-17.854 5.884-.598-.598-.264-1.912.743-2.919l20.108-20.108 20.108-20.108c1.007-1.007 2.321-1.341 2.919-.743 0 0 4.328 7.642-5.884 17.854l-10.07 10.07z" fill="#d99f4c"/><path d="M56.078 11.326l-44.84 44.84c-2.562 2.562-6.755 2.562-9.317 0-2.562-2.562-2.562-6.755 0-9.317l44.84-44.84c2.562-2.562 6.755-2.562 9.317 0 2.563 2.562 2.563 6.755 0 9.317z" fill="#6a3311"/><circle cx="46.282" cy="26.588" r="1.5" fill="#efdfa0"/><circle cx="31.282" cy="43.588" r="1.5" fill="#efdfa0"/><circle cx="42.782" cy="34.088" r="1" fill="#efdfa0"/><circle cx="22.782" cy="50.088" r="1" fill="#efdfa0"/><circle cx="52.782" cy="22.088" r="1" fill="#efdfa0"/><circle cx="35.782" cy="36.088" r="1" fill="#efdfa0"/><circle cx="29.782" cy="10.088" r="1.5" fill="#efdfa0"/><circle cx="14.782" cy="27.088" r="1.5" fill="#efdfa0"/><circle cx="26.282" cy="17.588" r="1" fill="#efdfa0"/><circle cx="6.282" cy="33.588" r="1" fill="#efdfa0"/><circle cx="36.282" cy="5.588" r="1" fill="#efdfa0"/><circle cx="19.282" cy="19.588" r="1" fill="#efdfa0"/><path d="M2.768 53.32a1 1 0 0 1-1-1c0-1.721 1.4-3.121 3.121-3.121.618 0 1.121-.503 1.121-1.121 0-1.721 1.4-3.121 3.121-3.121.619 0 1.122-.503 1.122-1.122 0-1.721 1.4-3.121 3.121-3.121.618 0 1.121-.503 1.121-1.121 0-1.721 1.4-3.121 3.121-3.121.619 0 1.122-.503 1.122-1.122 0-1.721 1.4-3.121 3.121-3.121.618 0 1.121-.503 1.121-1.121 0-1.721 1.4-3.121 3.121-3.121.619 0 1.122-.503 1.122-1.122 0-1.721 1.4-3.121 3.121-3.121.618 0 1.121-.503 1.121-1.121 0-1.721 1.4-3.121 3.121-3.121.618 0 1.121-.503 1.121-1.121 0-1.722 1.4-3.122 3.122-3.122.618 0 1.121-.503 1.121-1.121 0-1.721 1.4-3.121 3.121-3.121.618 0 1.121-.503 1.121-1.121 0-1.722 1.4-3.122 3.122-3.122.618 0 1.121-.503 1.121-1.121 0-1.721 1.4-3.121 3.121-3.121a1 1 0 1 1 0 2c-.618 0-1.121.503-1.121 1.121 0 1.721-1.4 3.121-3.121 3.121-.619 0-1.122.503-1.122 1.122 0 1.721-1.4 3.121-3.121 3.121-.618 0-1.121.503-1.121 1.121 0 1.721-1.4 3.121-3.121 3.121-.619 0-1.122.503-1.122 1.122 0 1.721-1.4 3.121-3.121 3.121-.618 0-1.121.503-1.121 1.121 0 1.721-1.4 3.121-3.121 3.121-.618 0-1.121.503-1.121 1.121 0 1.722-1.4 3.122-3.122 3.122-.618 0-1.121.503-1.121 1.121 0 1.721-1.4 3.121-3.121 3.121-.618 0-1.121.503-1.121 1.121 0 1.722-1.4 3.122-3.122 3.122-.618 0-1.121.503-1.121 1.121 0 1.721-1.4 3.121-3.121 3.121-.618 0-1.121.503-1.121 1.121 0 1.722-1.4 3.122-3.122 3.122-.618 0-1.121.503-1.121 1.121 0 1.721-1.4 3.121-3.121 3.121-.618 0-1.121.503-1.121 1.121a1 1 0 0 1-1 1z" fill="#f9d70b"/><path d="M5.662 56.216a1 1 0 0 1-1-1c0-1.721 1.4-3.121 3.122-3.121.618 0 1.121-.503 1.121-1.122 0-1.721 1.4-3.121 3.121-3.121.618 0 1.121-.503 1.121-1.121 0-1.721 1.4-3.121 3.122-3.121.618 0 1.121-.503 1.121-1.121 0-1.722 1.4-3.122 3.121-3.122.618 0 1.121-.503 1.121-1.121 0-1.721 1.4-3.121 3.122-3.121.618 0 1.121-.503 1.121-1.121 0-1.722 1.4-3.122 3.121-3.122.618 0 1.121-.503 1.121-1.121 0-1.721 1.4-3.121 3.121-3.121.619 0 1.122-.503 1.122-1.121 0-1.722 1.4-3.122 3.121-3.122.618 0 1.121-.503 1.121-1.121 0-1.721 1.4-3.121 3.121-3.121.619 0 1.122-.503 1.122-1.121 0-1.721 1.4-3.121 3.121-3.121.618 0 1.121-.503 1.121-1.122 0-1.721 1.4-3.121 3.121-3.121.619 0 1.122-.503 1.122-1.121 0-1.721 1.4-3.121 3.121-3.121a1 1 0 1 1 0 2c-.618 0-1.121.503-1.121 1.121 0 1.721-1.4 3.121-3.122 3.121-.618 0-1.121.503-1.121 1.121 0 1.722-1.4 3.122-3.121 3.122-.618 0-1.121.503-1.121 1.121 0 1.721-1.4 3.121-3.122 3.121-.618 0-1.121.503-1.121 1.121 0 1.721-1.4 3.121-3.121 3.121-.618 0-1.121.503-1.121 1.122 0 1.721-1.4 3.121-3.122 3.121-.618 0-1.121.503-1.121 1.121 0 1.721-1.4 3.121-3.121 3.121-.618 0-1.121.503-1.121 1.122 0 1.721-1.4 3.121-3.121 3.121-.619 0-1.122.503-1.122 1.121 0 1.721-1.4 3.121-3.121 3.121-.618 0-1.121.503-1.121 1.122 0 1.721-1.4 3.121-3.121 3.121-.619 0-1.122.503-1.122 1.121 0 1.721-1.4 3.121-3.121 3.121-.618 0-1.121.503-1.121 1.121 0 1.722-1.4 3.122-3.121 3.122-.619 0-1.122.503-1.122 1.121a1 1 0 0 1-1 1z" fill="#ed3f32"/></svg>