<svg xmlns="http://www.w3.org/2000/svg" viewBox="0 0 57.103 57.103"><circle cx="20.552" cy="20" r="8" fill="#79e09b"/><path d="M29.052 0c-5.799 0-10.5 4.701-10.5 10.5 0 .588.06 1.161.153 1.723A7.975 7.975 0 0 1 20.552 12a8 8 0 0 1 8 8c0 .33-.026.652-.065.971.188.011.374.029.565.029 5.799 0 10.5-4.701 10.5-10.5S34.851 0 29.052 0z" fill="#f75b57"/><path d="M39.478 11.705C38.879 16.935 34.443 21 29.052 21c-.191 0-.377-.018-.565-.029a7.905 7.905 0 0 1-.408 1.717A7.981 7.981 0 0 0 34.552 26a8 8 0 0 0 8-8 7.981 7.981 0 0 0-3.074-6.295z" fill="#00d7ec"/><path d="M34.552 26c-2.52 0-4.752-1.178-6.218-3h-.394c-1.19 2.925-4.036 5-7.388 5-.149 0-.295-.014-.443-.022l9.112 29.126L40.405 23.44A7.968 7.968 0 0 1 34.552 26z" fill="#fbd490"/><path d="M34.764 27.542l1.414-1.414 1.414 1.414-1.414 1.414zm-5.656-2.827l1.414 1.415-1.414 1.414-1.414-1.414zm4.244 4.245l-1.414 1.414-1.415-1.414 1.415-1.414zm1.416 4.241l-1.414-1.414 1.414-1.414 1.414 1.414zm-5.66-2.827l-1.414 1.414-1.414-1.414 1.414-1.414zm1.416 1.412l1.414 1.414-1.414 1.415L29.11 33.2zm2.828 5.658l-1.414-1.414 1.414-1.414 1.414 1.414zm-9.902-7.072l1.414 1.414-1.415 1.414-1.414-1.414zm1.415 4.241l1.415-1.414 1.414 1.414-1.414 1.414zm4.243 1.417l1.414 1.413-1.414 1.415-1.414-1.415zm2.828 5.657l-1.414-1.415 1.414-1.414 1.414 1.414zm-7.071-4.244l1.414 1.414-1.414 1.414-1.414-1.414zm4.243 4.246l-1.414 1.414-1.414-1.414 1.414-1.414zm1.417 4.241l-1.414-1.414 1.414-1.414 1.414 1.414zm-1.415 4.243l-1.414-1.414 1.414-1.414 1.414 1.414zm-2.993-2.993l.163.163 1.414-1.414-1.414-1.414-.76.759zm-5.315-16.987l1.235-1.235-.996-.996c-.164.01-.323.038-.489.038-.124 0-.245-.01-.366-.019l-.057.057.673 2.155zm5.478-2.649l-1.07-1.07a7.937 7.937 0 0 1-1.567.879l-.191.191 1.414 1.414 1.414-1.414z" fill="#eeaf4b"/><path d="M38.052 2c-.808 0-1.579.154-2.292.424a10.477 10.477 0 0 1 3.72 9.283 8.046 8.046 0 0 1 1.993 2.312A6.483 6.483 0 0 0 44.551 8.5 6.498 6.498 0 0 0 38.052 2zm.869 12.045zm.512-2.065zm-.208 1.062z" fill="#e3e82a"/></svg>