<svg xmlns="http://www.w3.org/2000/svg" viewBox="0 0 59 59"><path d="M36.215 26.426h-.29C35.538 28.332 34.35 29 32.927 29s-2.611-.668-2.998-2.574h-.29C29.252 28.332 28.064 29 26.642 29c-1.423 0-2.611-.668-2.998-2.574h-.29C22.967 28.332 21.779 29 20.356 29c-1.401 0-2.573-.648-2.979-2.486a1.876 1.876 0 0 0-.357.139c-.201.805-.557 1.367-1.02 1.736.007.202.042.408.121.612l5.031 15 6.025 15 6.025-15 5.031-15c.016-.043.023-.085.032-.128-.987-.259-1.753-.988-2.05-2.447z" fill="#fbd490"/><path d="M33.171 31.906l1.414-1.414L36 31.906l-1.415 1.414zm-5.656-2.826l1.414 1.414-1.414 1.414-1.414-1.414zm4.243 4.244l-1.414 1.415-1.414-1.415 1.414-1.414zm1.416 4.241l-1.414-1.414 1.414-1.414 1.414 1.414zm-9.902-7.072l1.414 1.415-1.414 1.414-1.414-1.414zm4.243 4.245L26.1 36.152l-1.415-1.414 1.415-1.414zm1.416 1.412l1.414 1.415-1.414 1.414-1.414-1.414zm2.829 5.659l-1.415-1.414 1.414-1.414 1.415 1.414zm-14.146-8.485l1.414-1.414 1.414 1.414-1.414 1.414zm4.242 1.412l1.414 1.414-1.414 1.414-1.414-1.414zm1.416 4.241l1.414-1.414 1.414 1.414-1.414 1.414zm4.243 1.416l1.414 1.415-1.414 1.414-1.414-1.414zm2.828 5.658l-1.414-1.414 1.414-1.414 1.414 1.414zm-7.071-4.244l1.414 1.415-1.414 1.414-1.414-1.414zm4.243 4.246l-1.414 1.414-1.414-1.414 1.414-1.415zm1.416 4.241l-1.414-1.414 1.414-1.414 1.415 1.414zm-1.414 4.243l-1.415-1.414 1.415-1.415 1.414 1.415zm-3.565-3.564l.734.734 1.414-1.414-1.414-1.414-1.124 1.124z" fill="#eeaf4b"/><path d="M31 15.325v4.662c0 1.375-1.125 2.5-2.5 2.5s-2.5-1.125-2.5-2.5v-5.449c-5.053.502-9 4.764-9 9.949 0 .716.078 1.413.222 2.087.052-.019.101-.045.155-.06.406 1.838 1.578 2.486 2.979 2.486 1.423 0 2.61-.668 2.998-2.574h.29C24.031 28.332 25.219 29 26.642 29c1.423 0 2.61-.668 2.998-2.574h.29C30.317 28.332 31.505 29 32.927 29c1.423 0 2.611-.668 2.998-2.574h.29c.08.392.196.728.339 1.02.289-.935.446-1.928.446-2.959 0-4.099-2.47-7.618-6-9.162zm-1-5.154L40.172 0 43 2.828 32.828 13z" fill="#4c312c"/><path d="M32.828 13L30 10.172l4.857-4.857A9.972 9.972 0 0 0 27 1.487c-5.523 0-10 4.477-10 10 0 2.485.912 4.753 2.411 6.502A9.968 9.968 0 0 1 26 14.538v5.449c0 1.375 1.125 2.5 2.5 2.5s2.5-1.125 2.5-2.5v-4.662a10.034 10.034 0 0 1 3.589 2.663A9.947 9.947 0 0 0 37 11.487c0-.816-.109-1.606-.293-2.366L32.828 13z" fill="#fff5bb"/><path fill="#a46f3e" d="M33 7.26l2.767 2.786-1.419 1.41-2.767-2.787zm2.724-2.736l2.769 2.785-1.419 1.41-2.768-2.785zm2.996-3.007l2.767 2.785-1.419 1.41-2.767-2.785z"/></svg>