<svg xmlns="http://www.w3.org/2000/svg" viewBox="0 0 57.007 57.007"><g fill="#fbd490"><path d="M28.979 56.007h-1c-1.1 0-2-.9-2-2v-8h5v8c0 1.1-.9 2-2 2z"/><path d="M28.979 57.007h-1c-1.654 0-3-1.346-3-3v-9h7v9c0 1.654-1.346 3-3 3zm-2-10v7a1 1 0 0 0 1 1h1a1 1 0 0 0 1-1v-7h-3z"/></g><path d="M42.003 13.143C42.003 5.914 36.171 0 29.043 0h-1.08c-7.128 0-12.96 5.914-12.96 13.143v28.932c0 2.168 1.733 3.925 3.87 3.925h19.259c2.138 0 3.87-1.757 3.87-3.925V13.143z" fill="#6f58a8"/><path d="M15.003 15.206v4.222c.019-.017.043-.022.061-.04L33.594.858a12.649 12.649 0 0 0-3.442-.8L15.003 15.206zm0 18.939c.019-.017.043-.022.061-.04L41.02 8.148a13.192 13.192 0 0 0-1.52-2.722L15.003 29.923v4.222zm27-16.505l-26.44 26.44a3.863 3.863 0 0 0 2.433 1.809l24.008-24.008V17.64zM32.082 46l9.921-9.922v-4.242L27.839 46z" fill="#d85c81"/></svg>