<svg xmlns="http://www.w3.org/2000/svg" viewBox="0 0 55.866 55.866"><path d="M35.486 55.866H20.344a1.846 1.846 0 0 1-1.834-1.625l-2.568-21.375h23.946L37.32 54.241a1.846 1.846 0 0 1-1.834 1.625z" fill="#fbd490"/><path d="M40.324 32.866H15.506c-1.794 0-3.248-1.404-3.248-3.135l-.921-4.865h33.155l-.921 4.865c.001 1.732-1.454 3.135-3.247 3.135z" fill="#eeaf4b"/><path d="M11.899 24.866h32.069c.928-1.007 1.449-2.117 1.449-3.285 0-1.631-1.007-3.149-2.737-4.429.107-.363.164-.735.164-1.114 0-2.034-1.604-3.878-4.206-5.232 0 0 .069-11.698-9.47-10.753 0 0 3.076 4.981-1.234 5.025-6.004.064-10.872 2.195-10.872 4.9 0 .283 1.252.559 1.354.829-2.602 1.354-5.393 3.198-5.393 5.232 0 .378 1.286.75 1.393 1.114-1.73 1.28-3.966 2.799-3.966 4.429 0 1.168.521 2.278 1.449 3.284z" fill="#f2ecd3"/><path d="M25.416 11.866h-3a1 1 0 1 1 0-2h3a1 1 0 1 1 0 2zm9 0h-2a1 1 0 1 1 0-2h2a1 1 0 1 1 0 2zm-9.004 6h-.996a1 1 0 1 1 0-2h.996a1 1 0 1 1 0 2zm6.414 0h-1.833a1 1 0 1 1 0-2h1.833a1 1 0 1 1 0 2zm5.59 0h-.996a1 1 0 1 1 0-2h.996a1 1 0 1 1 0 2zm-17 0h-1a1 1 0 1 1 0-2h1a1 1 0 1 1 0 2z" fill="#fbd490"/><path d="M28.123 51.159l-2.707-2.707-2.707 2.707 1.414 1.415 1.293-1.293 1.293 1.293zm7 0l-2.707-2.707-2.707 2.707 1.414 1.415 1.293-1.293 1.293 1.293zm-16.707-9.878l1.293 1.293 1.414-1.415-2.707-2.707-1.707 1.707 1.414 1.415zm5.707 1.293l1.293-1.293 1.293 1.293 1.414-1.415-2.707-2.707-2.707 2.707zm7 0l1.293-1.293 1.293 1.293 1.414-1.415-2.707-2.707-2.707 2.707zm-12.414 3.585l1.414 1.415 1.293-1.293 1.293 1.293 1.414-1.415-2.707-2.707zm7 0l1.414 1.415 1.293-1.293 1.293 1.293 1.414-1.415-2.707-2.707zm7 0l1.414 1.415 1.293-1.293 1.293 1.293 1.414-1.415-2.707-2.707zm-11.293-9.878l1.293 1.293 1.414-1.415-2.707-2.707-2.707 2.707 1.414 1.415zm7 0l1.293 1.293 1.414-1.415-2.707-2.707-2.707 2.707 1.414 1.415zm7 0l1.293 1.293 1.414-1.415-2.707-2.707-2.707 2.707 1.414 1.415zm2.293 3.878l-1 1 1.414 1.415.68-.68.069-.572zm-5 15l.707.707h1.414l.586-.586.523.523a1.84 1.84 0 0 0 1.361-1.468l-1.883-1.883-2.708 2.707zm-7 0l.707.707h1.414l.586-.585.586.585h1.414l.707-.707-2.707-2.707zm-6.89-.109c.334.493.893.817 1.525.817h.486l.586-.586.586.586h1.414l.707-.707-2.707-2.707-2.597 2.597zm2.304-3.891l-2-2-1.092 1.093.087.731 1.591 1.591z" fill="#eeaf4b"/></svg>