<svg xmlns="http://www.w3.org/2000/svg" viewBox="0 0 52.678 52.678"><path d="M26.339 0C13.165 0 10.625 11.211 10.625 14.97c0 3.038 1.407 5.5 3.143 5.5s3.143-.962 3.143-4c0 3.038 1.407 4 3.143 4 1.736 0 3.143-.962 3.143-4 0 3.038 1.407 4 3.143 4s3.143-.962 3.143-4c0 3.038 1.407 4 3.143 4 1.736 0 3.143-.962 3.143-4 0 3.038 1.407 4 3.143 4s3.143-2.462 3.143-5.5C42.053 10.661 39.539 0 26.339 0z" fill="#f2ecd3"/><path d="M35.913 17.104h-.29c-.387 1.906-1.575 2.574-2.998 2.574-1.423 0-2.611-.668-2.998-2.574h-.29c-.387 1.906-1.575 2.574-2.998 2.574-1.423 0-2.611-.668-2.998-2.574h-.29c-.387 1.906-1.575 2.574-2.998 2.574-1.401 0-2.573-.648-2.979-2.486a1.876 1.876 0 0 0-.357.139c-.201.805-.557 1.367-1.02 1.736.007.202.042.408.121.612l5.031 15 6.025 18 6.025-18 5.031-15c.016-.043.023-.085.032-.128-.986-.259-1.753-.988-2.049-2.447z" fill="#fbd490"/><path d="M32.18 23.036l1.414-1.415 1.415 1.415-1.415 1.414zm-5.656-2.828l1.414 1.414-1.414 1.415-1.415-1.415zm4.243 4.245l-1.414 1.414-1.414-1.414 1.414-1.414zm1.416 4.241l-1.414-1.414 1.414-1.414 1.414 1.414zm-9.901-7.071l1.414 1.414-1.414 1.414-1.414-1.414zm4.243 4.244l-1.415 1.414-1.414-1.414 1.414-1.414zm1.415 1.413l1.414 1.413-1.414 1.414-1.415-1.414zm2.829 5.657l-1.415-1.414 1.415-1.415 1.414 1.415zm-9.903-7.073l1.414 1.414-1.414 1.415-1.414-1.415zm1.416 4.242l1.414-1.414 1.414 1.414-1.414 1.414zm4.242 1.415l1.414 1.415-1.414 1.414-1.414-1.414zm2.829 5.659l-1.415-1.415 1.415-1.414 1.414 1.414zm-7.071-4.244l1.415 1.414-1.415 1.414-1.414-1.414zm4.242 4.244l-1.414 1.415-1.414-1.414 1.414-1.414zm1.416 4.242l-1.414-1.415 1.414-1.414 1.415 1.414zm-1.414 4.243l-1.414-1.414 1.414-1.414 1.415 1.414zm-8.707-20.019l.22.219 1.414-1.414-1.414-1.414-.82.819zm5.877 14.361l-.797.797.621 1.857.176.175 1.414-1.414z" fill="#eeaf4b"/><path d="M21.18 8.332a1 1 0 0 1-.833-1.552l1.821-2.753a1 1 0 0 1 1.668 1.104l-1.821 2.753a1 1 0 0 1-.835.448z" fill="#9777a8"/><path d="M35.083 14a.997.997 0 0 1-.707-.293l-2.795-2.796a.999.999 0 1 1 1.414-1.414l2.795 2.796A.999.999 0 0 1 35.083 14z" fill="#00d7ec"/><path d="M24.925 13.907a1.001 1.001 0 0 1-.309-1.951l2.762-.897a1 1 0 0 1 .618 1.903l-2.762.897a1.037 1.037 0 0 1-.309.048z" fill="#e22f37"/><path d="M21.214 12.027a.988.988 0 0 1-.451-.108l-1.855-.94a1 1 0 1 1 .904-1.783l1.855.94a1 1 0 0 1-.453 1.891z" fill="#f1b501"/><path d="M28.569 8.401a1 1 0 0 1-.893-.548l-.94-1.855a1 1 0 0 1 .44-1.344.997.997 0 0 1 1.344.439l.94 1.855a1 1 0 0 1-.891 1.453z" fill="#79e09b"/></svg>