<svg xmlns="http://www.w3.org/2000/svg" viewBox="0 0 57.007 57.007"><g fill="#fbd490"><path d="M28.788 56.007h-1c-1.1 0-2-.9-2-2v-8h5v8c0 1.1-.9 2-2 2z"/><path d="M28.789 57.007h-1c-1.654 0-3-1.346-3-3v-9h7v9c0 1.654-1.346 3-3 3zm-2-10v7a1 1 0 0 0 1 1h1a1 1 0 0 0 1-1v-7h-3z"/></g><path d="M42.194 13.143C42.194 5.914 36.28 0 29.051 0h-1.095c-7.229 0-13.143 5.914-13.143 13.143v28.932A3.925 3.925 0 0 0 18.738 46h19.531a3.925 3.925 0 0 0 3.925-3.925V13.143z" fill="#f96c7e"/><path d="M34.061 28.48a3.744 3.744 0 0 1-3.74-3.74v-4.933a1 1 0 1 1 2 0v4.933a1.741 1.741 0 0 0 3.48 0v-4.933a1 1 0 1 1 2 0v4.933a3.744 3.744 0 0 1-3.74 3.74zm-9.52 11.558a3.744 3.744 0 0 1-3.74-3.74v-2.74a1 1 0 1 1 2 0v2.74a1.741 1.741 0 0 0 3.481 0v-2.74a1 1 0 1 1 2 0v2.74a3.744 3.744 0 0 1-3.741 3.74zm-.422-22.558a3.744 3.744 0 0 1-3.74-3.74V11a1 1 0 1 1 2 0v2.74a1.741 1.741 0 0 0 3.48 0V11a1 1 0 1 1 2 0v2.74a3.744 3.744 0 0 1-3.74 3.74z" fill="#f7b7c2"/></svg>