<svg xmlns="http://www.w3.org/2000/svg" viewBox="0 0 60 60"><path d="M40.5 13h-36c-2.2 0-4 1.8-4 4s1.8 4 4 4h3c-2.2 0-4 1.8-4 4s1.8 4 4 4h3c-2.2 0-4 1.8-4 4s1.8 4 4 4h3c-2.2 0-4 1.8-4 4s1.8 4 4 4h4c-2.2 0-4 1.8-4 4s1.8 4 4 4h9c2.2 0 4-1.8 4-4s-1.8-4-4-4h4c2.2 0 4-1.8 4-4s-1.8-4-4-4h3c2.2 0 4-1.8 4-4s-1.8-4-4-4h3c2.2 0 4-1.8 4-4s-1.8-4-4-4h4c2.2 0 4-1.8 4-4s-1.8-4-4-4z" fill="#c56458"/><path d="M21.5 60a1 1 0 0 1-1-1v-2a1 1 0 1 1 2 0v2a1 1 0 0 1-1 1z" fill="#a5a5a5"/><path d="M21.5 14a1 1 0 0 1-1-1v-3a1 1 0 1 1 2 0v3a1 1 0 0 1-1 1zm0-9a1 1 0 0 1-1-1V1a1 1 0 1 1 2 0v3a1 1 0 0 1-1 1z" fill="#7a3726"/><circle cx="21.5" cy="7" r="3" fill="#ed3f32"/><path d="M33.5 57h-24a4 4 0 0 1-4-4h32a4 4 0 0 1-4 4z" fill="#a5a5a5"/><path d="M56.5 47h-8V7a4 4 0 0 1 8 0v40z" fill="#d2d5d7"/><path d="M58.5 48h-12a1 1 0 1 1 0-2h12a1 1 0 1 1 0 2z" fill="#a5a5a5"/><path fill="#a5a5a5" d="M50.5 47h4v9h-4zM55 59h-5a1.5 1.5 0 0 1 0-3h5a1.5 1.5 0 0 1 0 3zm-2.5-37a1 1 0 0 1-1-1V7a1 1 0 1 1 2 0v14a1 1 0 0 1-1 1z"/><path d="M25.5 22h-19a1 1 0 1 1 0-2h19a1 1 0 1 1 0 2zm12 0h-5a1 1 0 1 1 0-2h5a1 1 0 1 1 0 2zm-23 8h-5a1 1 0 1 1 0-2h5a1 1 0 1 1 0 2zm21 0h-17a1 1 0 1 1 0-2h17a1 1 0 1 1 0 2zm-11 8h-13a1 1 0 1 1 0-2h13a1 1 0 1 1 0 2zm8 0h-4a1 1 0 1 1 0-2h4a1 1 0 1 1 0 2zm-15 8h-3a1 1 0 1 1 0-2h3a1 1 0 1 1 0 2zm10 0h-6a1 1 0 1 1 0-2h6a1 1 0 1 1 0 2z" fill="#7a3726"/></svg>