<svg xmlns="http://www.w3.org/2000/svg" height="20" width="20" viewBox="0 0 511.996 511.996"><circle cx="255.998" cy="255.998" r="255.998" fill="#966645"/><circle cx="255.998" cy="255.998" r="238.638" fill="#bbe383"/><g fill="#fffcb5"><ellipse cx="255.998" cy="255.998" rx="82.528" ry="91.958"/><ellipse cx="255.998" cy="255.998" rx="91.958" ry="82.525"/></g><path d="M258.811 154.694a3.28 3.28 0 0 1-3.325 3.23 3.286 3.286 0 0 1-3.234-3.329l.933-62.041a3.28 3.28 0 1 1 6.558.099l-.932 62.041zm0 267.652a3.286 3.286 0 0 1-3.325 3.237 3.289 3.289 0 0 1-3.234-3.329l.933-62.048a3.289 3.289 0 0 1 3.332-3.23 3.282 3.282 0 0 1 3.226 3.329l-.932 62.041zm14.024-257.64c-.274 1.639-1.942 2.718-3.727 2.421-1.785-.3-3.018-1.869-2.743-3.508l9.408-56.111c.274-1.639 1.95-2.725 3.735-2.425 1.781.304 3.007 1.876 2.732 3.512l-9.405 56.111zm-36.611 242.687c-.274 1.635-1.946 2.721-3.727 2.422-1.785-.3-3.014-1.873-2.74-3.508l9.408-56.111c.274-1.635 1.946-2.721 3.735-2.422 1.781.3 3.01 1.873 2.736 3.508l-9.412 56.111zm50.859-247.925a3.282 3.282 0 0 1-4.089 2.187 3.282 3.282 0 0 1-2.187-4.089l18.033-59.371a3.285 3.285 0 0 1 4.097-2.184 3.278 3.278 0 0 1 2.18 4.089l-18.034 59.368zm-73.926 257.241a3.279 3.279 0 0 1-4.086 2.187 3.283 3.283 0 0 1-2.187-4.093l18.033-59.367a3.287 3.287 0 0 1 4.097-2.187 3.284 3.284 0 0 1 2.18 4.093l-18.037 59.367zM297.8 172.961c-.717 1.5-2.619 2.078-4.25 1.299-1.631-.779-2.381-2.63-1.668-4.126l24.54-51.331c.717-1.5 2.626-2.078 4.261-1.295 1.628.783 2.374 2.63 1.657 4.126l-24.54 51.327zm-102.222 223.14c-.717 1.5-2.619 2.078-4.254 1.299-1.631-.786-2.381-2.63-1.664-4.13l24.54-51.331c.717-1.5 2.623-2.078 4.258-1.295 1.631.779 2.374 2.623 1.661 4.122l-24.541 51.335zm120.416-222.123a3.283 3.283 0 0 1-4.565.808 3.287 3.287 0 0 1-.808-4.569l35.587-50.829a3.286 3.286 0 0 1 4.572-.801 3.278 3.278 0 0 1 .801 4.565l-35.587 50.826zM165.788 395.512a3.278 3.278 0 0 1-4.565.808 3.282 3.282 0 0 1-.808-4.565l35.587-50.829a3.28 3.28 0 1 1 5.373 3.764l-35.587 50.822zm156.194-205.381c-1.145 1.203-3.135 1.16-4.444-.084-1.31-1.247-1.449-3.241-.304-4.441l39.274-41.165c1.145-1.2 3.142-1.16 4.455.091 1.306 1.251 1.438 3.237.293 4.437l-39.274 41.162zM155.488 370.46c-1.145 1.207-3.135 1.156-4.448-.084-1.306-1.251-1.445-3.237-.3-4.444l39.278-41.165c1.145-1.2 3.135-1.156 4.448.091 1.306 1.251 1.441 3.237.296 4.437l-39.274 41.165zm182.168-175.456a3.28 3.28 0 0 1-4.602-.549 3.288 3.288 0 0 1 .552-4.609l48.821-38.301a3.277 3.277 0 0 1 4.605.56 3.277 3.277 0 0 1-.56 4.602l-48.816 38.297zM129.572 363.356a3.283 3.283 0 0 1-4.602-.549 3.287 3.287 0 0 1 .552-4.609l48.818-38.301a3.279 3.279 0 0 1 4.609.556 3.28 3.28 0 0 1-.56 4.602l-48.817 38.301zm209.123-151.15c-1.449.816-3.34.201-4.228-1.375-.893-1.577-.446-3.519.999-4.338l49.538-27.979c1.449-.816 3.343-.198 4.236 1.383.885 1.577.435 3.515-1.01 4.335l-49.535 27.974zM126.993 336.387c-1.449.823-3.34.201-4.232-1.372-.889-1.58-.443-3.522 1.006-4.338l49.542-27.983c1.445-.816 3.336-.194 4.228 1.386.889 1.573.439 3.508-1.006 4.331l-49.538 27.976zm226.355-111.96a3.281 3.281 0 0 1-4.185-1.997 3.284 3.284 0 0 1 2.001-4.188l58.515-20.649a3.28 3.28 0 1 1 2.184 6.186l-58.515 20.648zm-251.023 92.88a3.28 3.28 0 0 1-4.185-1.993 3.283 3.283 0 0 1 2.001-4.188l58.511-20.652a3.282 3.282 0 0 1 4.188 2.001c.6 1.708-.3 3.581-2.005 4.188l-58.51 20.644zm246.502-76.251c-1.631.311-3.226-.878-3.566-2.656-.34-1.774.706-3.475 2.337-3.786l55.892-10.648c1.631-.311 3.23.882 3.57 2.667.337 1.774-.713 3.471-2.345 3.782l-55.888 10.641zm-240.313 49.875c-1.635.315-3.226-.878-3.57-2.652-.337-1.778.71-3.479 2.341-3.786l55.896-10.652c1.628-.307 3.223.882 3.563 2.667.337 1.778-.71 3.471-2.337 3.779l-55.893 10.644zm250.218-29.823a3.284 3.284 0 0 1-3.204-3.351 3.286 3.286 0 0 1 3.354-3.208l62.033 1.445a3.28 3.28 0 0 1 3.201 3.358 3.282 3.282 0 0 1-3.354 3.201l-62.03-1.445zm-267.648-2.206a3.274 3.274 0 0 1-3.204-3.347 3.286 3.286 0 0 1 3.354-3.208l62.03 1.445a3.283 3.283 0 0 1 3.204 3.358 3.283 3.283 0 0 1-3.358 3.201l-62.026-1.449zm257.52 16.146c-1.635-.289-2.707-1.968-2.392-3.746.311-1.781 1.895-2.999 3.526-2.71l56.035 9.873c1.635.285 2.707 1.972 2.392 3.749-.315 1.785-1.898 2.992-3.534 2.707l-56.027-9.873zm-242.376-38.605c-1.639-.289-2.707-1.968-2.396-3.746.318-1.785 1.898-2.999 3.533-2.71l56.038 9.869c1.631.289 2.699 1.968 2.385 3.753-.315 1.778-1.895 2.988-3.526 2.703l-56.034-9.869zm246.143 56.781a3.282 3.282 0 0 1-1.986-4.192 3.289 3.289 0 0 1 4.192-1.986l58.434 20.875a3.278 3.278 0 0 1-2.209 6.171l-58.431-20.868zM98.992 206.983a3.276 3.276 0 0 1-1.99-4.188 3.284 3.284 0 0 1 4.192-1.99l58.43 20.872a3.284 3.284 0 0 1 1.986 4.196 3.287 3.287 0 0 1-4.192 1.983l-58.426-20.873zm239.385 96.293c-1.459-.794-1.95-2.721-1.094-4.309.856-1.595 2.743-2.257 4.203-1.47l50.091 26.991c1.46.786 1.95 2.721 1.09 4.316-.86 1.595-2.743 2.242-4.203 1.456l-50.087-26.984zM120.427 190.42c-1.467-.79-1.95-2.718-1.097-4.313.863-1.595 2.743-2.25 4.207-1.463l50.091 26.991c1.456.786 1.942 2.714 1.086 4.313-.86 1.595-2.74 2.246-4.199 1.456l-50.088-26.984zm211.874 135.922a3.286 3.286 0 0 1-.3-4.631 3.293 3.293 0 0 1 4.634-.3l46.564 41.015a3.282 3.282 0 0 1 .289 4.631 3.278 3.278 0 0 1-4.627.293l-46.56-41.008zM128.807 152.47a3.275 3.275 0 0 1-.3-4.624 3.282 3.282 0 0 1 4.631-.296l46.564 41.012a3.279 3.279 0 0 1 .293 4.631 3.285 3.285 0 0 1-4.631.293l-46.557-41.016zm186.77 178.031c-1.068-1.273-.808-3.252.578-4.408 1.386-1.163 3.38-1.079 4.448.194l36.549 43.609c1.068 1.266.805 3.252-.585 4.408-1.386 1.163-3.38 1.072-4.444-.201l-36.546-43.602zM154.851 145.015c-1.072-1.277-.805-3.248.578-4.411 1.39-1.16 3.38-1.075 4.448.198l36.549 43.609c1.064 1.269.801 3.245-.589 4.408-1.386 1.16-3.373 1.075-4.441-.201l-36.545-43.603zm148.575 203.64a3.277 3.277 0 0 1 1.339-4.437 3.286 3.286 0 0 1 4.444 1.335l29.303 54.696a3.292 3.292 0 0 1-1.346 4.444 3.286 3.286 0 0 1-4.437-1.342l-29.303-54.696zM173.499 114.652a3.275 3.275 0 0 1 1.335-4.437 3.286 3.286 0 0 1 4.444 1.339l29.299 54.692a3.284 3.284 0 0 1-1.342 4.444 3.284 3.284 0 0 1-4.437-1.346l-29.299-54.692zm112.804 232.061c-.556-1.566.38-3.329 2.078-3.929 1.705-.607 3.544.172 4.1 1.737l19.013 53.624c.556 1.566-.38 3.329-2.089 3.929-1.705.607-3.541-.179-4.093-1.737l-19.009-53.624zm-85.798-229.951c-.56-1.569.38-3.321 2.081-3.932 1.708-.6 3.544.176 4.1 1.741l19.013 53.631c.552 1.558-.384 3.314-2.092 3.921-1.705.604-3.537-.172-4.089-1.737l-19.013-53.624zm69.462 242.53a3.284 3.284 0 0 1 2.754-3.731 3.295 3.295 0 0 1 3.735 2.758l9.189 61.368a3.294 3.294 0 0 1-2.762 3.731 3.287 3.287 0 0 1-3.727-2.758l-9.189-61.368zM226.366 95.214a3.278 3.278 0 0 1 2.751-3.731 3.288 3.288 0 0 1 3.735 2.758l9.185 61.364a3.283 3.283 0 0 1-2.758 3.731 3.287 3.287 0 0 1-3.727-2.762l-9.186-61.36z" fill="#93bf54"/><g fill="#4f1818"><ellipse transform="rotate(-123.994 187.428 178.17)" cx="187.428" cy="178.17" rx="6.156" ry="3.607"/><ellipse transform="rotate(-123.994 191.997 143.589)" cx="191.997" cy="143.589" rx="6.156" ry="3.607"/><ellipse transform="rotate(-87.645 237.695 149.055)" cx="237.706" cy="149.062" rx="6.16" ry="3.607"/><ellipse transform="rotate(-126.32 219.03 155.198)" cx="219.03" cy="155.196" rx="6.156" ry="3.607"/><ellipse transform="rotate(-80.276 256 129.723)" cx="255.992" cy="129.719" rx="6.156" ry="3.607"/><ellipse transform="rotate(-80.247 272.441 147.968)" cx="272.429" cy="147.961" rx="6.156" ry="3.606"/><ellipse transform="rotate(-57.057 300.014 157.924)" cx="300.014" cy="157.919" rx="6.156" ry="3.607"/><ellipse transform="rotate(-82.571 291.6 129.723)" cx="291.599" cy="129.722" rx="6.156" ry="3.607"/><ellipse transform="rotate(-51.54 317.71 165.708)" cx="317.71" cy="165.703" rx="6.156" ry="3.607"/><ellipse transform="rotate(-51.54 341.614 164.945)" cx="341.614" cy="164.939" rx="6.156" ry="3.607"/><ellipse transform="rotate(-15.172 364.929 195.356)" cx="364.911" cy="195.347" rx="6.156" ry="3.606"/><ellipse transform="rotate(-53.856 347.967 183.5)" cx="347.953" cy="183.492" rx="6.156" ry="3.606"/><ellipse transform="rotate(-7.82 362.048 216.544)" cx="362.06" cy="216.52" rx="6.156" ry="3.607"/><ellipse transform="rotate(33.509 348.94 306.283)" cx="348.953" cy="306.275" rx="6.156" ry="3.607"/><ellipse transform="rotate(-7.799 381.518 229.945)" cx="381.499" cy="229.934" rx="6.156" ry="3.606"/><ellipse transform="rotate(15.377 358.935 273.758)" cx="358.911" cy="273.782" rx="6.16" ry="3.607"/><ellipse transform="rotate(15.377 362.064 292.739)" cx="362.039" cy="292.763" rx="6.156" ry="3.607"/><ellipse transform="rotate(-10.113 384.294 258.538)" cx="384.308" cy="258.548" rx="6.156" ry="3.607"/><ellipse transform="rotate(77.4 272.415 364.235)" cx="272.433" cy="364.236" rx="6.156" ry="3.607"/><ellipse transform="rotate(51.378 345.164 332.995)" cx="345.174" cy="333.005" rx="6.16" ry="3.607"/><ellipse transform="rotate(77.355 298.924 372.433)" cx="298.91" cy="372.416" rx="6.152" ry="3.606"/><ellipse transform="rotate(55.75 326.37 338.523)" cx="326.373" cy="338.522" rx="6.156" ry="3.607"/><ellipse transform="rotate(77.355 255.983 364.273)" cx="255.971" cy="364.248" rx="6.153" ry="3.607"/><ellipse transform="rotate(67.772 309.985 355.532)" cx="309.991" cy="355.531" rx="6.156" ry="3.607"/><ellipse transform="rotate(113.715 226.33 364.026)" cx="226.341" cy="364.044" rx="6.156" ry="3.607"/><ellipse transform="rotate(75.078 241.314 358.205)" cx="241.322" cy="358.205" rx="6.16" ry="3.607"/><ellipse transform="rotate(121.077 206.731 357.549)" cx="206.739" cy="357.56" rx="6.156" ry="3.607"/><ellipse transform="rotate(121.09 191.97 351.186)" cx="191.98" cy="351.205" rx="6.156" ry="3.603"/><ellipse transform="rotate(144.277 166.79 325.255)" cx="166.8" cy="325.272" rx="6.157" ry="3.603"/><ellipse transform="rotate(118.782 172.583 345.54)" cx="172.592" cy="345.556" rx="6.153" ry="3.607"/><ellipse transform="rotate(149.84 164.97 310.681)" cx="164.964" cy="310.671" rx="6.156" ry="3.607"/><ellipse transform="rotate(149.84 147.009 297.166)" cx="147.004" cy="297.157" rx="6.152" ry="3.607"/><ellipse transform="rotate(-173.826 137.46 256.751)" cx="137.461" cy="256.753" rx="6.156" ry="3.607"/><ellipse transform="rotate(147.546 154.2 278.476)" cx="154.194" cy="278.464" rx="6.156" ry="3.607"/><ellipse transform="rotate(-166.45 143.41 241.096)" cx="143.414" cy="241.102" rx="6.156" ry="3.607"/><ellipse transform="rotate(-166.434 140.618 218.496)" cx="140.619" cy="218.497" rx="6.156" ry="3.607"/><ellipse transform="rotate(-143.264 171.615 185.927)" cx="171.614" cy="185.925" rx="6.16" ry="3.607"/><ellipse transform="rotate(-168.754 143.57 197.412)" cx="143.569" cy="197.41" rx="6.156" ry="3.607"/></g></svg>