<svg xmlns="http://www.w3.org/2000/svg" viewBox="0 0 58 58"><path fill="#546a79" d="M0 6.699h5v8H0zm11 0h15v8H11zm21 0h14v8H32zm20 0h6v8h-6z"/><path d="M11 19.699H5v-15a3 3 0 1 1 6 0v15zm21 1h-6v-16a3 3 0 1 1 6 0v16z" fill="#a46f3e"/><path d="M16.454 52.699H3v-33h13.454c.854 0 1.546.692 1.546 1.546v29.907c0 .855-.692 1.547-1.546 1.547zm13.546 3l-4-5v-30h10v.768c0 17.649-2.041 24.995-6 34.232z" fill="#d2d5d7"/><path d="M29 29.699a1 1 0 0 1-1-1v-5a1 1 0 1 1 2 0v5a1 1 0 0 1-1 1zm-23 0a1 1 0 0 1-1-1v-5a1 1 0 1 1 2 0v5a1 1 0 0 1-1 1z" fill="#fff"/><path d="M52 19.699h-6v-15a3 3 0 1 1 6 0v15z" fill="#a46f3e"/><path d="M50 56.301a26.844 26.844 0 0 1-5-15.602v-21h9c0 6.491-4 10.102-4 36.602z" fill="#d2d5d7"/><path fill="#e6e6e6" d="M13 19.699h2v33h-2z"/><path d="M48 29.699a1 1 0 0 1-1-1v-5a1 1 0 1 1 2 0v5a1 1 0 0 1-1 1z" fill="#fff"/></svg>