<svg xmlns="http://www.w3.org/2000/svg" viewBox="0 0 55 55"><path d="M55 31.005H13c0 11.598 9.402 21 21 21s21-9.403 21-21z" fill="#f4c44e"/><path d="M51 31.005H17c0 9.389 7.611 17 17 17s17-7.612 17-17z" fill="#f9ea80"/><path fill="#f9da49" d="M33 31.005h2v17h-2z"/><path fill="#f9da49" d="M34.707 30.297l12 12-1.414 1.415-12-12z"/><path fill="#f9da49" d="M33.293 30.297l1.414 1.414-12 12-1.414-1.414z"/><path d="M47.983 11.284l.397-.397a4.011 4.011 0 0 0 0-5.657 4.011 4.011 0 0 0-5.657 0l-.24.24C33.392-.662 19.376 1.707 9.489 11.594S-2.767 35.498 3.365 44.589l-.24.24c-1.556 1.556-1.556 4.101 0 5.657s4.101 1.556 5.657 0l.397-.397c5.548 3.31 12.717 3.647 19.639 1.245C19.731 49.023 13 40.811 13 31.005h36.202c2.433-6.948 2.104-14.151-1.219-19.721zm-15.098-2.26c-.435 1.205-1.612 1.551-2.755 1.293.588.133-.089.004-.21-.007a6.044 6.044 0 0 0-.465-.029h-.152l-.094.007c-.167.018-.333.039-.499.064-1.159.175-2.283-.584-2.485-1.758-.196-1.137.598-2.31 1.758-2.485 1.244-.188 2.392-.115 3.609.16 1.147.259 1.654 1.755 1.293 2.755z" fill="#f9d70b"/></svg>