<svg xmlns="http://www.w3.org/2000/svg" viewBox="0 0 57.761 57.761"><ellipse cx="31.332" cy="54.761" rx="15" ry="3" fill="#f4f4f4"/><ellipse cx="26.332" cy="54.761" rx="10" ry="2" fill="#d8d8d8"/><path d="M48.467 32.559c0-3.075-10.328-5.568-23.068-5.568S2.332 29.483 2.332 32.559v.135c0 12.74 10.328 23.068 23.068 23.068s23.068-10.328 23.068-23.068l-.001-.135z" fill="#e6e6e6"/><path fill="#a46f3e" d="M14.429 5.995l41.001 4-.194 1.99-41.001-4z"/><path d="M17.694 23.76c-.878-.728-1.362-1.711-1.362-2.77s.483-2.042 1.362-2.77c.412-.342.638-.778.638-1.23s-.227-.889-.638-1.23c-.878-.728-1.362-1.711-1.362-2.77s.483-2.042 1.362-2.77c.412-.342.638-.778.638-1.23s-.227-.889-.638-1.23c-.878-.728-1.362-1.711-1.362-2.77s.483-2.042 1.362-2.77l1.276 1.54c-.412.342-.638.778-.638 1.23s.227.889.638 1.23c.878.728 1.362 1.711 1.362 2.77s-.483 2.042-1.362 2.77c-.412.342-.638.778-.638 1.23s.227.889.638 1.23c.878.728 1.362 1.711 1.362 2.77s-.483 2.042-1.362 2.77c-.412.342-.638.778-.638 1.23s.227.889.638 1.23l-1.276 1.54zm4 0c-.878-.728-1.362-1.711-1.362-2.77s.483-2.042 1.362-2.77c.412-.342.638-.778.638-1.23s-.227-.889-.638-1.23c-.878-.728-1.362-1.711-1.362-2.77s.483-2.042 1.362-2.77c.412-.342.638-.778.638-1.23s-.227-.889-.638-1.23c-.878-.728-1.362-1.711-1.362-2.77s.483-2.042 1.362-2.77l1.276 1.54c-.412.342-.638.778-.638 1.23s.227.889.638 1.23c.878.728 1.362 1.711 1.362 2.77s-.483 2.042-1.362 2.77c-.412.342-.638.778-.638 1.23s.227.889.638 1.23c.878.728 1.362 1.711 1.362 2.77s-.483 2.042-1.362 2.77c-.412.342-.638.778-.638 1.23s.227.889.638 1.23l-1.276 1.54zm4 0c-.878-.728-1.362-1.711-1.362-2.77s.483-2.042 1.362-2.77c.412-.342.638-.778.638-1.23s-.227-.889-.638-1.23c-.878-.728-1.362-1.711-1.362-2.77s.483-2.042 1.362-2.77c.412-.342.638-.778.638-1.23s-.227-.889-.638-1.23c-.878-.728-1.362-1.711-1.362-2.77s.483-2.042 1.362-2.77l1.276 1.54c-.412.342-.638.778-.638 1.23s.227.889.638 1.23c.878.728 1.362 1.711 1.362 2.77s-.483 2.042-1.362 2.77c-.412.342-.638.778-.638 1.23s.227.889.638 1.23c.878.728 1.362 1.711 1.362 2.77s-.483 2.042-1.362 2.77c-.412.342-.638.778-.638 1.23s.227.889.638 1.23l-1.276 1.54zm4 0c-.878-.728-1.362-1.711-1.362-2.77s.483-2.042 1.362-2.77c.412-.342.638-.778.638-1.23s-.227-.889-.638-1.23c-.878-.728-1.362-1.711-1.362-2.77s.483-2.042 1.362-2.77c.412-.342.638-.778.638-1.23s-.227-.889-.638-1.23c-.878-.728-1.362-1.711-1.362-2.77s.483-2.042 1.362-2.77l1.276 1.54c-.412.342-.638.778-.638 1.23s.227.889.638 1.23c.878.728 1.362 1.711 1.362 2.77s-.483 2.042-1.362 2.77c-.412.342-.638.778-.638 1.23s.227.889.638 1.23c.878.728 1.362 1.711 1.362 2.77s-.483 2.042-1.362 2.77c-.412.342-.638.778-.638 1.23s.227.889.638 1.23l-1.276 1.54z" fill="#eeaf4b"/><ellipse cx="25.399" cy="32.558" rx="23.068" ry="5.568" fill="#fbd490"/><path d="M34.562 36.399c-.683-.824-1.778-.824-2.461 0l-1.539-1.277c.728-.878 1.711-1.361 2.77-1.361s2.042.483 2.77 1.361l-1.54 1.277zm6-1c-.683-.824-1.778-.824-2.461 0l-1.539-1.277c.728-.878 1.711-1.361 2.77-1.361s2.042.483 2.77 1.361l-1.54 1.277zm4-2c-.683-.824-1.778-.824-2.461 0l-1.539-1.277c.728-.878 1.711-1.361 2.77-1.361s2.042.483 2.77 1.361l-1.54 1.277zm-6-1c-.683-.824-1.778-.824-2.461 0l-1.539-1.277c.728-.878 1.711-1.361 2.77-1.361s2.042.483 2.77 1.361l-1.54 1.277zm-6 1c-.683-.824-1.778-.824-2.461 0l-1.539-1.277c.728-.878 1.711-1.361 2.77-1.361s2.042.483 2.77 1.361l-1.54 1.277zm0-3c-.683-.824-1.778-.824-2.461 0l-1.539-1.277c.728-.878 1.711-1.361 2.77-1.361s2.042.483 2.77 1.361l-1.54 1.277zm-6 2c-.683-.824-1.778-.824-2.461 0l-1.539-1.277c.728-.878 1.711-1.361 2.77-1.361s2.042.483 2.77 1.361l-1.54 1.277zm1 4c-.683-.824-1.778-.824-2.461 0l-1.539-1.277c.728-.878 1.711-1.361 2.77-1.361s2.042.483 2.77 1.361l-1.54 1.277zm-6 0c-.683-.824-1.778-.824-2.461 0l-1.539-1.277c.728-.878 1.711-1.361 2.77-1.361s2.042.483 2.77 1.361l-1.54 1.277zm-12-1c-.683-.824-1.778-.824-2.461 0l-1.539-1.277c.728-.878 1.711-1.361 2.77-1.361s2.042.483 2.77 1.361l-1.54 1.277zm7 0c-.683-.824-1.778-.824-2.461 0l-1.539-1.277c.728-.878 1.711-1.361 2.77-1.361s2.042.483 2.77 1.361l-1.54 1.277zm3-3c-.683-.824-1.778-.824-2.461 0l-1.539-1.277c.728-.878 1.711-1.361 2.77-1.361s2.042.483 2.77 1.361l-1.54 1.277zm-8 0c-.683-.824-1.778-.824-2.461 0l-1.539-1.277c.728-.878 1.711-1.361 2.77-1.361s2.042.483 2.77 1.361l-1.54 1.277z" fill="#eeaf4b"/><path fill="#af7f58" d="M54.193 0l.277 1.98-43 6L11.192 6z"/><path d="M18.624 52.181c-9.44-1.46-11.3-13.42-11.3-13.42 2.865 1.45 5.293 2.767 6.198 4.954 3.225.168 4.927 1.206 4.384 4.283 8.688 2.048 8.378 3.64 5.943 4.859-1.55-.151-5.225-.676-5.225-.676z" fill="#ededed"/></svg>