<svg xmlns="http://www.w3.org/2000/svg" viewBox="0 0 53.669 53.669"><path d="M28.324 31.929l-2.569-2.569a1.184 1.184 0 0 1 0-1.674L48.551 4.89a3.009 3.009 0 0 1 4.243 0 3.009 3.009 0 0 1 0 4.243L29.997 31.929a1.181 1.181 0 0 1-1.673 0z" fill="#546a79"/><path d="M35.92 33.848L23.828 21.756a.948.948 0 0 0-1.338-.002L0 44.089c7.42 7.42 19.45 7.42 26.87 0l9.044-8.895a.948.948 0 0 0 .006-1.346z" fill="#faf5e5"/><path fill="#7092a0" d="M45.21 16.717l1.58-1.581-6.364-2.121-1.58 1.581zm-2.966 2.965l1.581-1.58-6.364-2.122-1.58 1.581z"/></svg>