<svg xmlns="http://www.w3.org/2000/svg" viewBox="0 0 57 57"><path d="M7.626 43.243c-3.969 2.999-2.999 3.325 0 7.294 3.969-2.999 2.998-3.325 0-7.294z" fill="#ef771d"/><path d="M19.626 43.243c-3.969 2.999-2.999 3.325 0 7.294 3.969-2.999 2.998-3.325 0-7.294z" fill="#f9da49"/><path d="M31.374 43.243c-3.969 2.999-2.999 3.325 0 7.294 3.97-2.999 2.999-3.325 0-7.294z" fill="#ef771d"/><path d="M31.407 39.243H7.593c-2.857 0-5.172-2.329-5.172-5.201v-.462c0-.875-.236-1.733-.684-2.482L.106 28.365a.74.74 0 0 1 .631-1.121h37.526a.74.74 0 0 1 .631 1.121l-1.631 2.734a4.85 4.85 0 0 0-.684 2.482v.462c0 2.871-2.315 5.2-5.172 5.2z" fill="#d2d5d7"/><path d="M19 37.243H6a1 1 0 1 1 0-2h13a1 1 0 1 1 0 2zm-3.714-3H6a1 1 0 1 1 0-2h9.286a1 1 0 1 1 0 2z" fill="#fff"/><path d="M55 29.243H38.369l-1.106 1.854a4.832 4.832 0 0 0-.661 2.146H55c1.1 0 2-.9 2-2s-.9-2-2-2zm-18 24H3a1 1 0 1 1 0-2h34a1 1 0 1 1 0 2zM11 22.728a.997.997 0 0 1-.707-.293 6.953 6.953 0 0 1-2.052-4.949c0-1.869.729-3.628 2.052-4.95A4.97 4.97 0 0 0 11.759 9c0-1.334-.521-2.59-1.466-3.535a.999.999 0 1 1 1.414-1.414A6.952 6.952 0 0 1 13.759 9a6.954 6.954 0 0 1-2.052 4.95 4.97 4.97 0 0 0-1.466 3.536c0 1.334.521 2.59 1.466 3.535A.999.999 0 0 1 11 22.728zm12.241 0a.997.997 0 0 1-.707-.293 6.953 6.953 0 0 1-2.052-4.949c0-1.869.729-3.628 2.052-4.95A4.973 4.973 0 0 0 24 9c0-1.334-.521-2.59-1.466-3.535a.999.999 0 1 1 1.414-1.414A6.952 6.952 0 0 1 26 9a6.954 6.954 0 0 1-2.052 4.95 4.97 4.97 0 0 0-1.466 3.536c0 1.334.521 2.59 1.466 3.535a.999.999 0 0 1-.707 1.707z" fill="#e6e6e6"/></svg>