<svg xmlns="http://www.w3.org/2000/svg" viewBox="0 0 58.481 58.481"><path d="M25.6 13.435l-.911 1.822a26.417 26.417 0 0 1-4.949 6.866L5.565 36.299.371 38.664c-.247 2.064 2.14 4.618 4.114 4.614.233 0 .443.205.442.438-.007 1.823 1.283 3.112 3.106 3.105a.417.417 0 0 1 .437.437c-.007 1.823 1.283 3.113 3.106 3.106a.417.417 0 0 1 .437.437c-.007 1.823 1.282 3.112 3.105 3.106a.453.453 0 0 1 .438.442c-.003 1.974 2.55 4.361 4.614 4.114l2.336-5.164 14.205-14.205a26.417 26.417 0 0 1 6.866-4.949l1.822-.911L25.6 13.435z" fill="#516572"/><path fill="#eeaf4b" d="M39.657 1.153l1.393 1.435-11.925 11.567-1.392-1.435zm15.968 17.025l1.45 1.377-10.949 11.54-1.45-1.377z"/><path fill="#f9ea80" d="M44.692 0l1.414 1.414-14.85 14.85-1.414-1.414z"/><path fill="#eeaf4b" d="M48.934 0l1.414 1.413-16.97 16.97-1.414-1.413z"/><path fill="#f9ea80" d="M51.762 1.414l1.415 1.414-17.678 17.678-1.414-1.415z"/><path fill="#eeaf4b" d="M53.884 3.536l1.414 1.414-17.676 17.677-1.415-1.415z"/><path fill="#f9ea80" d="M55.299 6.364l1.414 1.415-16.97 16.97-1.415-1.414z"/><path fill="#eeaf4b" d="M56.713 9.192l1.414 1.414-16.264 16.263-1.414-1.414z"/><path fill="#f9ea80" d="M56.631 13.17l1.432 1.396-14.069 14.422-1.431-1.397z"/><path d="M25.566 33.37l-1.945.537a5.242 5.242 0 0 0-4.412 4.412l-.537 1.945 1.945-.537a5.242 5.242 0 0 0 4.412-4.412l.537-1.945zm-8.188-3.491l-.995 1.755a5.24 5.24 0 0 0 0 6.239l.995 1.755.995-1.755a5.24 5.24 0 0 0 0-6.239l-.995-1.755zM29.06 41.895l-1.755-.995a5.24 5.24 0 0 0-6.239 0l-1.755.995 1.755.995a5.24 5.24 0 0 0 6.239 0l1.755-.995zm-8.41-11.197a.999.999 0 0 1-.707-1.707l3.509-3.509a.999.999 0 1 1 1.414 1.414l-3.509 3.509a.993.993 0 0 1-.707.293zm3.346.898a.999.999 0 0 1-.707-1.707l4.386-4.386a.999.999 0 1 1 1.414 1.414l-4.386 4.386a.997.997 0 0 1-.707.293zm4.584 3.9a.999.999 0 0 1-.707-1.707l4.387-4.386a.999.999 0 1 1 1.414 1.414l-4.387 4.386a.997.997 0 0 1-.707.293zm.064-4.323a.999.999 0 0 1-.707-1.707l3.948-3.947a.999.999 0 1 1 1.414 1.414l-3.948 3.947a.999.999 0 0 1-.707.293zm.492 8.011a.999.999 0 0 1-.707-1.707l3.509-3.509a.999.999 0 1 1 1.414 1.414l-3.509 3.509a.997.997 0 0 1-.707.293z" fill="#f1b501"/><path fill="#f4c44e" d="M6.625 36.653l1.415 1.414-1.415 1.414-1.414-1.414zm2.121 2.121l1.414 1.414-1.414 1.415-1.414-1.415zm2.121 2.122l1.414 1.414-1.414 1.414-1.414-1.414zm2.121 2.121l1.414 1.414-1.414 1.414-1.414-1.414zm2.122 2.122l1.414 1.414-1.414 1.414-1.414-1.414zm2.122 2.121l1.414 1.414-1.414 1.414-1.414-1.414zm2.121 2.12l1.415 1.415-1.415 1.414-1.414-1.414zm2.121 2.122l1.414 1.415-1.414 1.414-1.414-1.414z"/></svg>