<svg xmlns="http://www.w3.org/2000/svg" viewBox="0 0 58 58"><path d="M56 38.5H2c-1.1 0-2-.9-2-2s.9-2 2-2h54c1.1 0 2 .9 2 2s-.9 2-2 2z" fill="#d2d5d7"/><path d="M2.458 38.5C5.421 43.13 18 48.705 18 55.5h22c0-6.795 12.579-12.37 15.542-17H2.458z" fill="#e6e6e6"/><path d="M9 32.5a1 1 0 0 1-1-1c0-6.065 4.935-11 11-11h2a1 1 0 1 1 0 2h-2c-4.963 0-9 4.037-9 9a1 1 0 0 1-1 1z" fill="#dbb579"/><path d="M15 32.5a1 1 0 0 1-1-1c0-2.757 2.243-5 5-5h5a1 1 0 1 1 0 2h-5c-1.654 0-3 1.346-3 3a1 1 0 0 1-1 1z" fill="#dbb579"/><path d="M12 32.5a1 1 0 0 1-1-1c0-4.411 3.589-8 8-8h4a1 1 0 1 1 0 2h-4c-3.309 0-6 2.691-6 6a1 1 0 0 1-1 1zm12-1h-5a1 1 0 1 1 0-2h5a1 1 0 1 1 0 2zm24 1a1 1 0 0 1-1-1c0-4.963-4.037-9-9-9h-7a1 1 0 1 1 0-2h7c6.065 0 11 4.935 11 11a1 1 0 0 1-1 1z" fill="#fbd490"/><path d="M42 32.5a1 1 0 0 1-1-1c0-1.654-1.346-3-3-3h-5a1 1 0 1 1 0-2h5c2.757 0 5 2.243 5 5a1 1 0 0 1-1 1z" fill="#fbd490"/><path d="M45 32.5a1 1 0 0 1-1-1c0-3.309-2.691-6-6-6h-6a1 1 0 1 1 0-2h6c4.411 0 8 3.589 8 8a1 1 0 0 1-1 1zm-7-1h-5a1 1 0 1 1 0-2h5a1 1 0 1 1 0 2z" fill="#dbb579"/><path d="M27 32.5a1 1 0 0 1-1-1c0-8.748-2.617-13-8-13a1 1 0 0 0-1 1 1 1 0 1 1-2 0c0-1.654 1.346-3 3-3 4.562 0 10 2.603 10 15a1 1 0 0 1-1 1z" fill="#fbd490"/><path d="M30 32.5a1 1 0 0 1-1-1c0-4.811-1.072-16-11-16-2.757 0-5 2.243-5 5v1a1 1 0 1 1-2 0v-1c0-3.859 3.141-7 7-7 8.141 0 13 6.729 13 18a1 1 0 0 1-1 1z" fill="#dbb579"/><circle cx="25.5" cy="9" r="4.5" fill="#a46f3e"/><circle cx="43.5" cy="16" r="4.5" fill="#a46f3e"/><circle cx="33.5" cy="15" r="4.5" fill="#4c312c"/><circle cx="39.5" cy="7" r="4.5" fill="#4c312c"/><path d="M41.383 51.5H16.617a8.952 8.952 0 0 1 1.023 2h22.719a9 9 0 0 1 1.024-2z" fill="#f75b57"/><path d="M41.383 51.5c.453-.68.994-1.347 1.606-2H15.011c.612.653 1.153 1.32 1.606 2h24.766z" fill="#fff"/><path d="M12.912 47.5c.75.653 1.461 1.319 2.1 2h27.977a28.758 28.758 0 0 1 2.1-2H12.912z" fill="#88c057"/></svg>