<svg xmlns="http://www.w3.org/2000/svg" height="20" viewBox="0 0 52 52"><path d="M35.24 0c-3.156.642-5.657 1.965-7.431 3.992-1.384 1.581-2.101 3.33-2.47 4.87a84.516 84.516 0 0 1 3.482-.06c.3-.873.766-1.787 1.493-2.618 1.167-1.334 2.829-2.262 4.951-2.79.027-1.133.041-2.277-.025-3.394z" fill="#6a3311"/><path d="M26 52c-6.05 0-11-4.95-11-11V19c0-6.05 4.95-11 11-11s11 4.95 11 11v22c0 6.05-4.95 11-11 11z" fill="#a4e869"/><path d="M39 8c-2.43 0-4.674.808-6.5 2.156C35.22 12.163 37 15.38 37 19v22c0 3.62-1.78 6.837-4.5 8.844A10.91 10.91 0 0 0 39 52c6.05 0 9-4.95 9-11l2-22c0-6.05-4.95-11-11-11z" fill="#e3e82a"/><path d="M13 8c2.43 0 4.674.808 6.5 2.156C16.78 12.163 15 15.38 15 19v22c0 3.62 1.78 6.837 4.5 8.844A10.91 10.91 0 0 1 13 52c-6.05 0-9-4.95-9-11L2 19C2 12.95 6.95 8 13 8z" fill="#88c057"/></svg>