<svg xmlns="http://www.w3.org/2000/svg" height="20" viewBox="0 0 57.06 57.06"><path d="M28.758 19.06c16.058 0 15.944 8.507 15.944 19s-7.139 19-15.944 19h-.456c-8.806 0-15.944-8.507-15.944-19s-.114-19 15.944-19" fill="#d6a550"/><path d="M32.51 13.389a12.153 12.153 0 0 1 1.728-1.77c.791-4.56 6.234-8.278 10.119-9.28 0 0-3.318-2.76-7.433-2.284-4.264.493-6.688 2.584-8.055 5.056 2.881 2.25 3.56 5.793 3.641 8.278z" fill="#88c057"/><path d="M23.255 19.411c1.476-.228 3.145-.351 5.048-.351h.056s.167-5.042-5-6c-5.167-.958-6 2-6 2 4.466 1.071 5.604 3.261 5.896 4.351zm11.357.142c.819-1.552 4.68-5.279 9.746-6.493 0 0-1.833-3.958-7-3-5.167.958-7.999 9-7.999 9l.069.011c1.971.031 3.689.196 5.184.482z" fill="#659c35"/><path d="M25.988 14.156c2.26 1.652 2.367 4.399 2.37 4.838.335.016.679.014 1.025 0 .145-.395 1.021-2.682 2.565-4.859.059-.115.119-.204.181-.242.074-.101.152-.201.228-.301.052-.067.1-.136.154-.203-.119-3.626-1.506-9.507-9.153-10.329-3.875-.417-7 2-7 2 3.951.947 9.625 4.667 9.63 9.096z" fill="#a4e869"/><path d="M21.358 44.646l-3.707 3.707 1.414 1.414 2.293-2.293 2.293 2.293 1.414-1.414zm3.293 8.707l1.414 1.414 2.293-2.293 2.293 2.293 1.414-1.414-3.707-3.707zm7-5l1.414 1.414 2.293-2.293 2.293 2.293 1.414-1.414-3.707-3.707zm-12.586-6.586l2.293-2.293 2.293 2.293 1.414-1.414-3.707-3.707-3.707 3.707zm9.293 1.707l2.293 2.293 1.414-1.414-3.707-3.707-3.707 3.707 1.414 1.414zm-13.86-2.828l-1.707 1.707 1.414 1.414.293-.293 2.293 2.293 1.414-1.414zm20.86-1.172l2.293 2.293 1.414-1.414-3.707-3.707-3.707 3.707 1.414 1.414zm-17.707-7.121l1.414 1.414 2.293-2.293 2.293 2.293 1.414-1.414-3.707-3.707zm10.707 3.121l2.293 2.293 1.414-1.414-3.707-3.707-3.707 3.707 1.414 1.414zm7-6.828l-3.707 3.707 1.414 1.414 2.293-2.293 2.293 2.293 1.414-1.414zm-14-5.172l2.293 2.293 1.414-1.414-3.707-3.707-3.707 3.707 1.414 1.414zm4.707 6.293l2.293-2.293 2.293 2.293 1.414-1.414-3.707-3.707-3.707 3.707zm9.293-6.293l2.293 2.293 1.414-1.414-3.707-3.707-3.707 3.707 1.414 1.414zm7.854 2.064l-.699-1.048-3.862 3.863 1.414 1.414 2.138-2.137 1.323 1.985.732-.488c-.22-1.294-.553-2.496-1.046-3.589zM42.16 40.843l-3.51 3.51 1.414 1.414 2.49-2.49 1.355.678c.18-.656.336-1.323.456-2.008l-2.205-1.104zM14.23 24.774a11.63 11.63 0 0 0-.93 2.228l.765.765.293-.293 2.293 2.293 1.414-1.414-3.707-3.707-.128.128zm30.459 10.203l-2.331-2.331-3.707 3.707 1.414 1.414 2.293-2.293 1.293 1.293 1.046-1.046-.008-.744zm-32.311-.351c-.008.474-.014.952-.017 1.437l.704.704 1.293-1.293 2.293 2.293 1.414-1.414-3.707-3.707-1.98 1.98z" fill="#f4c44e"/></svg>