<svg xmlns="http://www.w3.org/2000/svg" viewBox="0 0 58 58"><path d="M31.94.817a5.703 5.703 0 0 0 4.057.707 5.676 5.676 0 0 1 5.525 1.986 5.653 5.653 0 0 0 3.567 2.034 5.621 5.621 0 0 1 4.504 3.733 5.587 5.587 0 0 0 2.648 3.117 5.56 5.56 0 0 1 2.94 5.029 5.53 5.53 0 0 0 1.409 3.823 5.516 5.516 0 0 1 1.021 5.719 5.502 5.502 0 0 0 0 4.069 5.516 5.516 0 0 1-1.021 5.719 5.53 5.53 0 0 0-1.409 3.823 5.555 5.555 0 0 1-2.94 5.029 5.587 5.587 0 0 0-2.648 3.117 5.623 5.623 0 0 1-4.504 3.733 5.65 5.65 0 0 0-3.567 2.034 5.676 5.676 0 0 1-5.525 1.986 5.698 5.698 0 0 0-4.057.707 5.7 5.7 0 0 1-5.88 0 5.703 5.703 0 0 0-4.057-.707 5.676 5.676 0 0 1-5.525-1.986 5.653 5.653 0 0 0-3.567-2.034 5.621 5.621 0 0 1-4.504-3.733 5.587 5.587 0 0 0-2.648-3.117 5.56 5.56 0 0 1-2.94-5.029 5.53 5.53 0 0 0-1.409-3.823 5.516 5.516 0 0 1-1.021-5.719 5.502 5.502 0 0 0 0-4.069 5.516 5.516 0 0 1 1.021-5.719 5.53 5.53 0 0 0 1.409-3.823 5.555 5.555 0 0 1 2.94-5.029 5.587 5.587 0 0 0 2.648-3.117 5.623 5.623 0 0 1 4.504-3.733 5.65 5.65 0 0 0 3.567-2.034 5.676 5.676 0 0 1 5.525-1.986A5.698 5.698 0 0 0 26.06.817a5.7 5.7 0 0 1 5.88 0z" fill="#fed070"/><circle cx="29" cy="29" r="24" fill="#faf8d2"/><circle cx="21" cy="15" r="5" fill="#cd6e61"/><circle cx="14" cy="32" r="5" fill="#cd6e61"/><circle cx="39" cy="20" r="5" fill="#cd6e61"/><circle cx="26" cy="44" r="5" fill="#cd6e61"/><circle cx="41" cy="37" r="5" fill="#cd6e61"/><circle cx="27.001" cy="27.999" r="5" fill="#cd6e61"/><g fill="#d79c8c"><circle cx="20" cy="13" r="1"/><circle cx="20" cy="17" r="1"/><circle cx="23" cy="15" r="1"/><circle cx="13" cy="30" r="1"/><circle cx="13" cy="34" r="1"/><circle cx="16" cy="32" r="1"/><circle cx="38" cy="18" r="1"/><circle cx="38" cy="22" r="1"/><circle cx="41" cy="20" r="1"/><circle cx="24.28" cy="42.572" r="1"/><circle cx="25.889" cy="46.233" r="1"/><circle cx="27.831" cy="43.195" r="1"/><circle cx="42.09" cy="35.048" r="1"/><circle cx="38.784" cy="37.299" r="1"/><circle cx="42.126" cy="38.653" r="1"/><circle cx="26.763" cy="25.775" r="1"/><circle cx="25.366" cy="29.523" r="1"/><circle cx="28.875" cy="28.697" r="1"/></g><path d="M29 17a1 1 0 1 1 0-2c1.654 0 3-1.346 3-3a1 1 0 1 1 2 0c0 2.757-2.243 5-5 5z" fill="#88c057"/><path d="M16.74 24.735a5.01 5.01 0 0 1-4.749-3.419 1 1 0 1 1 1.897-.633 3.003 3.003 0 0 0 3.795 1.897 1.001 1.001 0 0 1 .632 1.899 4.969 4.969 0 0 1-1.575.256z" fill="#ed3f32"/><path d="M37.739 45.999a5.008 5.008 0 0 1-4.747-3.419 1 1 0 1 1 1.897-.633 2.975 2.975 0 0 0 1.504 1.735 2.985 2.985 0 0 0 2.291.162 1 1 0 1 1 .633 1.897 4.97 4.97 0 0 1-1.578.258zm7.763-15.997a4.979 4.979 0 0 1-2.434-.639 1 1 0 1 1 .976-1.746 2.98 2.98 0 0 0 2.281.27 2.985 2.985 0 0 0 1.802-1.425 1 1 0 1 1 1.746.976 4.969 4.969 0 0 1-3.003 2.372 5.015 5.015 0 0 1-1.368.192z" fill="#88c057"/><path d="M29.502 38.002a4.979 4.979 0 0 1-2.434-.639 1 1 0 1 1 .976-1.746 2.985 2.985 0 0 0 2.281.27 2.985 2.985 0 0 0 1.802-1.425 1 1 0 1 1 1.746.976 4.969 4.969 0 0 1-3.003 2.372 5.015 5.015 0 0 1-1.368.192z" fill="#ed3f32"/><path d="M18.619 40.375a1 1 0 0 1-.376-1.927 3.005 3.005 0 0 0 1.655-3.907 1 1 0 1 1 1.853-.75 5.006 5.006 0 0 1-2.757 6.511.993.993 0 0 1-.375.073z" fill="#88c057"/><path d="M35.789 33a1 1 0 0 1-.982-.819 4.963 4.963 0 0 1 .8-3.742 4.963 4.963 0 0 1 3.213-2.079 1 1 0 0 1 .361 1.967 2.983 2.983 0 0 0-1.928 1.247 2.98 2.98 0 0 0-.48 2.246 1 1 0 0 1-.984 1.18z" fill="#ed3f32"/></svg>