<svg xmlns="http://www.w3.org/2000/svg" viewBox="0 0 57 57"><path d="M28 28.5L47.799 8.701c-10.935-10.935-28.663-10.935-39.598 0s-10.935 28.663 0 39.598 28.663 10.935 39.598 0L28 28.5z" fill="#fed070"/><path d="M28 28.5l16.971-16.971c-9.373-9.373-24.569-9.373-33.941 0s-9.373 24.569 0 33.941 24.569 9.373 33.941 0L28 28.5z" fill="#faf8d2"/><path d="M33.635 28.277L50.77 43.5c8.307-7.057 8.307-22.105 0-29.162-.098-.083-.2-.16-.299-.241l-16.836 14.18z" fill="#fed070"/><path d="M33.635 28.277l14.306 12.82c6.745-5.73 6.745-18.626 0-24.356-.098-.083-.207-.153-.306-.235l-14 11.771z" fill="#faf8d2"/><circle cx="47" cy="32.5" r="3" fill="#d79c8c"/><path d="M47 36.5c-2.206 0-4-1.794-4-4s1.794-4 4-4 4 1.794 4 4-1.794 4-4 4zm0-6c-1.103 0-2 .897-2 2s.897 2 2 2 2-.897 2-2-.897-2-2-2z" fill="#cd6e61"/><circle cx="32" cy="43.5" r="3" fill="#d79c8c"/><path d="M32 47.5c-2.206 0-4-1.794-4-4s1.794-4 4-4 4 1.794 4 4-1.794 4-4 4zm0-6c-1.103 0-2 .897-2 2s.897 2 2 2 2-.897 2-2-.897-2-2-2z" fill="#cd6e61"/><circle cx="18" cy="40.5" r="3" fill="#d79c8c"/><path d="M18 44.5c-2.206 0-4-1.794-4-4s1.794-4 4-4 4 1.794 4 4-1.794 4-4 4zm0-6c-1.103 0-2 .897-2 2s.897 2 2 2 2-.897 2-2-.897-2-2-2z" fill="#cd6e61"/><circle cx="11" cy="29.5" r="3" fill="#d79c8c"/><path d="M11 33.5c-2.206 0-4-1.794-4-4s1.794-4 4-4 4 1.794 4 4-1.794 4-4 4zm0-6c-1.103 0-2 .897-2 2s.897 2 2 2 2-.897 2-2-.897-2-2-2z" fill="#cd6e61"/><circle cx="15" cy="16.5" r="3" fill="#d79c8c"/><path d="M15 20.5c-2.206 0-4-1.794-4-4s1.794-4 4-4 4 1.794 4 4-1.794 4-4 4zm0-6c-1.103 0-2 .897-2 2s.897 2 2 2 2-.897 2-2-.897-2-2-2z" fill="#cd6e61"/><circle cx="27" cy="11.5" r="3" fill="#d79c8c"/><path d="M27 15.5c-2.206 0-4-1.794-4-4s1.794-4 4-4 4 1.794 4 4-1.794 4-4 4zm0-6c-1.103 0-2 .897-2 2s.897 2 2 2 2-.897 2-2-.897-2-2-2z" fill="#cd6e61"/><path d="M47 27.5a1 1 0 0 1-1-1c0-2.206 1.794-4 4-4a1 1 0 1 1 0 2c-1.103 0-2 .897-2 2a1 1 0 0 1-1 1z" fill="#e22f37"/><path d="M15 25.5a1 1 0 0 1-1-1c0-2.206 1.794-4 4-4a1 1 0 1 1 0 2c-1.103 0-2 .897-2 2a1 1 0 0 1-1 1z" fill="#a4e869"/><path d="M24.854 49.092a1 1 0 0 1-.815-1.58 2.003 2.003 0 0 0-.474-2.789 1 1 0 0 1 1.159-1.631 4.006 4.006 0 0 1 .946 5.578.997.997 0 0 1-.816.422z" fill="#ed7161"/><path d="M23 25.5a1 1 0 0 1-1-1c0-1.24 1.009-2.25 2.25-2.25a.25.25 0 0 0 .25-.25c0-1.24 1.009-2.25 2.25-2.25a.25.25 0 0 0 .25-.25 1 1 0 1 1 2 0c0 1.24-1.009 2.25-2.25 2.25a.25.25 0 0 0-.25.25c0 1.24-1.009 2.25-2.25 2.25a.25.25 0 0 0-.25.25 1 1 0 0 1-1 1z" fill="#f9d70b"/><path d="M24.294 33.097c-.199 0-.398-.026-.595-.08a2.236 2.236 0 0 1-1.362-1.056.25.25 0 0 0-.341-.093 2.253 2.253 0 0 1-3.07-.837.25.25 0 0 0-.341-.094 1 1 0 0 1-.992-1.736c.522-.298 1.128-.376 1.708-.218s1.063.533 1.362 1.056c.068.118.221.16.341.093a2.251 2.251 0 0 1 3.07.837.25.25 0 0 0 .341.094 1 1 0 0 1 .992 1.736 2.237 2.237 0 0 1-1.113.298zm.157 7.239a1 1 0 0 1-.98-1.206 2.236 2.236 0 0 1 .972-1.421 2.219 2.219 0 0 1 1.693-.317.236.236 0 0 0 .188-.035.243.243 0 0 0 .108-.158 2.234 2.234 0 0 1 .973-1.421 2.226 2.226 0 0 1 1.693-.316.255.255 0 0 0 .296-.193 1 1 0 0 1 1.957.413 2.254 2.254 0 0 1-2.665 1.738.25.25 0 0 0-.296.192 2.233 2.233 0 0 1-.973 1.422 2.233 2.233 0 0 1-1.693.316.244.244 0 0 0-.188.035.243.243 0 0 0-.108.158 1 1 0 0 1-.977.793z" fill="#659c35"/><path d="M39 13.5a3 3 0 0 0-3 3c0 1.085.582 2.028 1.446 2.554l4.109-4.109A2.991 2.991 0 0 0 39 13.5zm4 11a3 3 0 0 0 1.664-5.495l-4.406 3.704A2.998 2.998 0 0 0 43 24.5z" fill="#cd6e61"/></svg>