<svg xmlns="http://www.w3.org/2000/svg" viewBox="0 0 49 49"><path d="M36.186 48.5H12.814A6.814 6.814 0 0 1 6 41.686V12.5h37v29.186a6.814 6.814 0 0 1-6.814 6.814z" fill="#e6e6e6"/><path fill="#d2d5d7" d="M0 11.5h49v2H0zm43-2H6a4 4 0 0 1 4-4h29a4 4 0 0 1 4 4z"/><path d="M30 6.5H19v-1c0-2.757 2.243-5 5-5h1c2.757 0 5 2.243 5 5v1zm-8.829-2h6.657a3.006 3.006 0 0 0-2.829-2h-1a3.005 3.005 0 0 0-2.828 2zM6 41.5v.186a6.814 6.814 0 0 0 6.814 6.814h23.372A6.814 6.814 0 0 0 43 41.686V41.5H6z" fill="#d2d5d7"/><path d="M19 38.5H9a1 1 0 1 1 0-2h10a1 1 0 1 1 0 2zm-3-4H9a1 1 0 1 1 0-2h7a1 1 0 1 1 0 2zm-2-4H9a1 1 0 1 1 0-2h5a1 1 0 1 1 0 2z" fill="#fff"/></svg>