<svg xmlns="http://www.w3.org/2000/svg" viewBox="0 0 53 53"><circle cx="26.5" cy="26.5" r="26.5" fill="#d2d5d7"/><circle cx="26.5" cy="26.5" r="23.5" fill="#f2f2f2"/><ellipse transform="rotate(-23.802 12.273 19.35)" cx="12.274" cy="19.352" rx="5.175" ry="5.75" fill="#f9d70b"/><ellipse transform="rotate(-23.802 31.271 19.336)" cx="31.274" cy="19.338" rx="5.175" ry="5.75" fill="#f9da49"/><ellipse transform="rotate(-23.802 16.272 28.66)" cx="16.274" cy="28.662" rx="5.175" ry="5.75" fill="#eeaf4b"/><path d="M24.063 33.644a1 1 0 0 1-.635-1.773l6.878-5.644a1 1 0 0 1 1.269 1.547l-6.878 5.644a1.005 1.005 0 0 1-.634.226z" fill="#ed3f32"/><path d="M24.001 37.575a1 1 0 0 1-.635-1.773l6.878-5.644a1 1 0 0 1 1.269 1.547l-6.878 5.644a1.001 1.001 0 0 1-.634.226z" fill="#436b1c"/><path d="M29.834 36.67a1 1 0 0 1-.635-1.773l5.896-4.838a1 1 0 0 1 1.269 1.547l-5.896 4.838a1.001 1.001 0 0 1-.634.226z" fill="#88c057"/><path d="M27.807 42.214a1 1 0 0 1-.635-1.773l6.878-5.644a1 1 0 0 1 1.269 1.547l-6.878 5.644a1.003 1.003 0 0 1-.634.226z" fill="#a4e869"/><path d="M26.539 21.427c-1.277-2.896-.206-6.172 2.391-7.336-1.326-2.796-4.411-4.145-6.977-3.014-2.615 1.153-3.696 4.444-2.414 7.349 1.282 2.906 4.44 4.326 7.055 3.173l.023-.014c-.024-.053-.054-.104-.078-.158z" fill="#eeaf4b"/></svg>