<svg xmlns="http://www.w3.org/2000/svg" viewBox="0 0 58.034 58.034"><path d="M50.034 45.017h-42c-1.825 0-1.538-2.882-2.599-4.367l-5.26-3.165a.929.929 0 0 1 .756-1.469h56.174a.93.93 0 0 1 .756 1.469l-5.226 3.165c-1.062 1.486-.775 4.367-2.601 4.367z" fill="#e6e6e6"/><path d="M53.089 34.57c-.604-.41-.975-1.085-.9-1.812.025-.241.018-.48-.044-.686a2.3 2.3 0 0 0-1.652-1.55c-.358-.083-1.027-.049-1.027-.066a1.857 1.857 0 0 0-1.857-1.857c-.406 0-.929-.175-.929-.464 0-1.237-.97-2.238-2.189-2.308a.966.966 0 0 1-.471.325l-2.884.827a1.004 1.004 0 0 1-1.237-.686l-.528-1.842a90.31 90.31 0 0 0-5.362-.192 2.99 2.99 0 0 1-2.976 2.759 2.99 2.99 0 0 1-2.958-2.589 86.436 86.436 0 0 0-6.151.597l-2.446 2.713a.842.842 0 0 1-1.189.062l-.978-.881a.835.835 0 0 1-.106-1.115 66.76 66.76 0 0 0-4.787 1.117l-.843 1.608a1.004 1.004 0 0 1-1.35.422l-2.163-1.133c-.146.203-.228.429-.19.683.21 1.404-1.241 2.535-2.096 2.564-.704.024-.92 1.472-.886 2.176.006.121-1.857.832-1.857 1.857 0 .276.061.538.169.772.022.047.026.097.043.146h50.802a2.305 2.305 0 0 0-.958-1.447z" fill="#fbd490"/><path d="M13.517 31.397a1.001 1.001 0 0 1-.826-1.564l.781-1.146a1.001 1.001 0 0 1 1.653 1.127l-.781 1.146a.996.996 0 0 1-.827.437z" fill="#f7e2bf"/><path d="M10.227 28.952L7.57 27.56a1.004 1.004 0 0 1-.422-1.35l1.392-2.657a1.004 1.004 0 0 1 1.35-.422l2.657 1.392c.487.255.677.863.422 1.35l-1.392 2.657a1.003 1.003 0 0 1-1.35.422z" fill="#ea5e35"/><path d="M10.848 33.746a.996.996 0 0 1-.524-.149l-1.181-.729a1 1 0 1 1 1.051-1.701l1.181.729a1 1 0 0 1-.527 1.85zm4.71 1.663a.998.998 0 0 1-.993-1.123l.171-1.377a.997.997 0 0 1 1.115-.869.998.998 0 0 1 .869 1.115l-.171 1.377a.998.998 0 0 1-.991.877zm3.379-3.555l-.078-.003-1.383-.107a1 1 0 0 1-.92-1.074.997.997 0 0 1 1.074-.92l1.383.107a1 1 0 0 1-.076 1.997zm3.847 3.034a1 1 0 0 1-.826-1.564l.781-1.146a1.001 1.001 0 0 1 1.653 1.127l-.781 1.146a.995.995 0 0 1-.827.437zm.321-4.637a.996.996 0 0 1-.524-.149l-1.181-.729a1 1 0 1 1 1.051-1.701l1.181.729a1 1 0 0 1-.527 1.85zm22 3.491a1 1 0 0 1-.826-1.564l.782-1.146a1.001 1.001 0 0 1 1.653 1.127l-.782 1.146a.996.996 0 0 1-.827.437zm-2.209-2.996a.996.996 0 0 1-.524-.149l-1.181-.729a1 1 0 1 1 1.051-1.701l1.181.729a1 1 0 0 1-.527 1.85zM28.49 29.509l-.078-.003-1.384-.107a1 1 0 1 1 .154-1.994l1.384.107a1 1 0 0 1-.076 1.997zm11.003 7.568c-.026 0-.053-.001-.079-.003l-1.383-.108a1 1 0 0 1-.919-1.075c.043-.551.535-.948 1.075-.919l1.383.108a1 1 0 0 1-.077 1.997zm-10.386-3.06c-.086 0-.173-.011-.26-.034l-1.34-.359a1 1 0 0 1 .518-1.932l1.34.359a.999.999 0 0 1-.258 1.966zm5.178-.58a.999.999 0 0 1-.303-1.953l1.323-.42a1 1 0 0 1 .606 1.906l-1.323.42a.967.967 0 0 1-.303.047zm-2.179-2.42a.999.999 0 0 1-.705-1.709l.984-.979a.999.999 0 1 1 1.41 1.418l-.984.979a.994.994 0 0 1-.705.291zm7.999 2.342a1 1 0 0 1-.966-.744l-.354-1.342a1.001 1.001 0 0 1 1.934-.512l.354 1.342a1.001 1.001 0 0 1-.968 1.256zm-2.828-5.344c-.026 0-.053-.001-.079-.003l-1.384-.108a1 1 0 1 1 .156-1.994l1.384.108a1 1 0 0 1-.077 1.997z" fill="#f7e2bf"/><path d="M39.9 26.293l-.827-2.884a1.003 1.003 0 0 1 .686-1.237l2.884-.827a1.003 1.003 0 0 1 1.237.686l.827 2.884a1.003 1.003 0 0 1-.686 1.237l-2.884.827a1.003 1.003 0 0 1-1.237-.686z" fill="#f7994d"/><path d="M24.189 19.293l-.827-2.884a1.003 1.003 0 0 1 .686-1.237l2.884-.827a1.003 1.003 0 0 1 1.237.686l.827 2.884a1.003 1.003 0 0 1-.686 1.237l-2.884.827a1.004 1.004 0 0 1-1.237-.686z" fill="#fdd807"/><circle cx="31.034" cy="24.017" r="3" fill="#f6a36e"/><circle cx="15.034" cy="20.017" r="3" fill="#fbb50c"/><path d="M23.708 23.047l-4.229 4.692a.842.842 0 0 1-1.189.062l-.978-.881a.842.842 0 0 1-.062-1.189l4.229-4.692a.842.842 0 0 1 1.189-.062l.978.881a.842.842 0 0 1 .062 1.189z" fill="#71b43d"/><path d="M35.256 20.533l-2.17-5.932a.842.842 0 0 1 .501-1.08l1.237-.452a.842.842 0 0 1 1.08.501l2.17 5.932a.842.842 0 0 1-.501 1.08l-1.237.452a.842.842 0 0 1-1.08-.501z" fill="#98df2a"/><path d="M49.034 42.017H18.02a1 1 0 1 1 0-2h31.015a1 1 0 1 1-.001 2zm-35.928 0H9.034a1 1 0 1 1 0-2h4.071a1 1 0 1 1 .001 2z" fill="#fff"/></svg>