<svg xmlns="http://www.w3.org/2000/svg" viewBox="0 0 56.633 56.633"><path d="M49.554 18.195L18.382 49.783a2.005 2.005 0 0 1-2.828 0l-9-8.417a2.005 2.005 0 0 1 0-2.828l32-31.588a2.005 2.005 0 0 1 2.828 0l8.172 8.417c.778.778.778 2.05 0 2.828zm1.003-17.156l-6.045 9.065 2.121 2.121 8.96-6.15a3.572 3.572 0 0 0 0-5.037 3.572 3.572 0 0 0-5.036.001z" fill="#fbd490"/><path d="M6.076 55.594l6.15-8.96-2.121-2.121-9.065 6.045a3.572 3.572 0 0 0 0 5.037 3.572 3.572 0 0 0 5.036-.001z" fill="#fbd490"/><path d="M17.261 33.66a.999.999 0 0 0-1.414 0l-5 5a.999.999 0 1 0 1.414 1.414l5-5a1 1 0 0 0 0-1.414zm6 0a.999.999 0 0 0-1.414 0l-8 8a.999.999 0 1 0 1.414 1.414l8-8a1 1 0 0 0 0-1.414zm6 0a.999.999 0 0 0-1.414 0l-11 11a.999.999 0 1 0 1.414 1.414l11-11a1 1 0 0 0 0-1.414z" fill="#d8b177"/></svg>