<svg xmlns="http://www.w3.org/2000/svg" viewBox="0 0 56.801 56.801"><path fill="#d2d5d7" d="M34.02 21.058l1.415 1.414-12.536 12.535-1.414-1.414z"/><circle cx="14.033" cy="43.801" r="13" fill="#d2d5d7"/><path d="M14.033 53.8a1 1 0 0 1-1-1v-2a1 1 0 1 1 2 0v2a1 1 0 0 1-1 1zm0-16a1 1 0 0 1-1-1v-2a1 1 0 1 1 2 0v2a1 1 0 0 1-1 1zm-1.414 5.586a.997.997 0 0 1-.707-.293l-.708-.707a1 1 0 1 1 1.415-1.414l.708.707a.999.999 0 0 1-.708 1.707zm3.535 3.536a.997.997 0 0 1-.707-.293l-.707-.707a.999.999 0 1 1 1.414-1.414l.707.707a.999.999 0 0 1-.707 1.707zM7.033 44.8h-2a1 1 0 1 1 0-2h2a1 1 0 1 1 0 2zm16 0h-2a1 1 0 1 1 0-2h2a1 1 0 1 1 0 2zM7.669 51.165a.999.999 0 0 1-.707-1.707l1.414-1.414a.999.999 0 1 1 1.414 1.414l-1.414 1.414a.997.997 0 0 1-.707.293zm11.314-11.314a.999.999 0 0 1-.707-1.707l1.414-1.414a.999.999 0 1 1 1.414 1.414l-1.414 1.414a.993.993 0 0 1-.707.293zm-9.9 0a.997.997 0 0 1-.707-.293l-1.414-1.414a.999.999 0 1 1 1.414-1.414l1.414 1.414a.999.999 0 0 1-.707 1.707zm11.314 11.314a.997.997 0 0 1-.707-.293l-1.414-1.414a.999.999 0 1 1 1.414-1.414l1.414 1.414a.999.999 0 0 1-.707 1.707zm-4.95-7.779a.999.999 0 0 1-.707-1.707l.707-.707a.999.999 0 1 1 1.414 1.414l-.707.707a.993.993 0 0 1-.707.293zm-3.536 3.536a1.001 1.001 0 0 1-.708-1.707l.708-.707a1 1 0 1 1 1.415 1.414l-.708.707a.993.993 0 0 1-.707.293z" fill="#e6e6e6"/><path d="M55.768 5.657s-.067-1.789-1.968-3.689c0 0-1.891-1.998-3.689-1.968 0 0-10.386 4.464-18.077 18.077 0 0 .067 1.789 1.968 3.689l.001-.001s1.891 1.998 3.689 1.968c-.001.001 10.384-4.463 18.076-18.076z" fill="#a46f3e"/><path d="M50.537 2.402a1 1 0 0 0-1.415 0l-2.33 2.33a.999.999 0 0 0 .708 1.707.997.997 0 0 0 .707-.293l2.331-2.33a1 1 0 0 0-.001-1.414zM45.693 8.66a.999.999 0 1 0-1.414-1.414l-6.614 6.614a.999.999 0 1 0 1.414 1.414l6.614-6.614zm-4.622 7.45l-2.366 2.366a.999.999 0 1 0 1.414 1.414l2.367-2.366a1 1 0 0 0-1.415-1.414zm7.651-7.649L43.9 13.282a.999.999 0 1 0 1.414 1.414l4.821-4.821a.999.999 0 1 0-1.413-1.414zM35.415 16.11l-2.604 2.604a.999.999 0 1 0 1.414 1.414l2.604-2.604a.999.999 0 1 0-1.414-1.414zm18.16-11.089a.999.999 0 0 0-1.414 0L50.972 6.21a.999.999 0 1 0 1.414 1.414l1.189-1.189a1 1 0 0 0 0-1.414z" fill="#c18757"/></svg>