<svg xmlns="http://www.w3.org/2000/svg" viewBox="0 0 57 57"><path d="M28.5 30a1 1 0 0 1-1-1v-5.258a1 1 0 1 1 2 0V29a1 1 0 0 1-1 1z" fill="#d2d5d7"/><path d="M28.5 57c-1.65 0-3-1.35-3-3V32c0-1.65 1.35-3 3-3s3 1.35 3 3v22c0 1.65-1.35 3-3 3z" fill="#a46f3e"/><path d="M28.5 35c-.55 0-1-.45-1-1s.45-1 1-1 1 .45 1 1-.45 1-1 1zm0 4c-.55 0-1-.45-1-1s.45-1 1-1 1 .45 1 1-.45 1-1 1zm4.567-14h-9.135c-.825 0-1.528-.6-1.659-1.415l-3.462-21.64A1.68 1.68 0 0 1 20.47 0h16.06a1.68 1.68 0 0 1 1.659 1.945l-3.462 21.64A1.682 1.682 0 0 1 33.067 25z" fill="#d2d5d7"/><path d="M28.5 21a1 1 0 0 1-1-1V5a1 1 0 1 1 2 0v15a1 1 0 0 1-1 1zm3.043-.061a1 1 0 0 1-.993-1.128l1.915-14.878a1.004 1.004 0 0 1 1.12-.864 1 1 0 0 1 .864 1.12l-1.915 14.878a1 1 0 0 1-.991.872zm-6.044 0a1 1 0 0 1-.991-.872L22.592 5.189a1 1 0 0 1 1.984-.256l1.916 14.878a1 1 0 0 1-.993 1.128z" fill="#a5a5a5"/></svg>