<svg xmlns="http://www.w3.org/2000/svg" viewBox="0 0 55.801 55.801"><path fill="#d2d5d7" d="M33.686 21.008l1.414 1.415-7.332 7.331-1.414-1.414z"/><path d="M23.079 24.544l8.485 8.485c.458.458.557 1.165.243 1.732l-.851 1.532c-1.428 2.571-2.478 5.66-4.558 7.74L15.591 54.839a3.283 3.283 0 0 1-4.643 0l-9.7-9.7a3.283 3.283 0 0 1 0-4.643L12.056 29.69c2.08-2.08 5.189-3.109 7.76-4.538l1.532-.851a1.451 1.451 0 0 1 1.731.243z" fill="#d2d5d7"/><path d="M14.036 50.323a.999.999 0 0 1-.707-1.707L25.29 36.655a.999.999 0 1 1 1.414 1.414L14.743 50.03a.997.997 0 0 1-.707.293zM10.5 46.788a.999.999 0 0 1-.707-1.707l13.961-13.962a.999.999 0 1 1 1.414 1.414L11.207 46.495a.997.997 0 0 1-.707.293zm-3.535-3.536a.999.999 0 0 1-.707-1.707l11.961-11.961a.999.999 0 1 1 1.414 1.414L7.672 42.959a1 1 0 0 1-.707.293z" fill="#e6e6e6"/><path d="M55.514 5.657s-.067-1.789-1.968-3.689l-.001.001S51.654-.029 49.856.001c0 0-10.386 4.464-18.077 18.077 0 0 .067 1.789 1.968 3.689l.001-.001s1.891 1.998 3.689 1.968c0 0 10.385-4.464 18.077-18.077z" fill="#a46f3e"/><path d="M50.283 2.402a1 1 0 0 0-1.415 0l-2.33 2.33a.999.999 0 0 0 .708 1.707.997.997 0 0 0 .707-.293l2.331-2.33a1 1 0 0 0-.001-1.414zM45.439 8.66a.999.999 0 1 0-1.414-1.414l-6.614 6.614a.999.999 0 1 0 1.414 1.414l6.614-6.614zm-4.621 7.45l-2.367 2.366a1 1 0 0 0 1.415 1.414l2.366-2.366a.999.999 0 1 0-1.414-1.414zm7.65-7.649l-4.821 4.821a.999.999 0 1 0 1.414 1.414l4.821-4.821a.999.999 0 1 0-1.414-1.414zM35.161 16.11l-2.604 2.604a.999.999 0 1 0 1.414 1.414l2.604-2.604a.999.999 0 1 0-1.414-1.414zm18.16-11.089a.999.999 0 0 0-1.414 0L50.718 6.21a.999.999 0 1 0 1.414 1.414l1.189-1.189a1 1 0 0 0 0-1.414z" fill="#c18757"/></svg>