<svg xmlns="http://www.w3.org/2000/svg" height="20" width="20" viewBox="0 0 511.999 511.999"><path d="M256 429.882c-201.562-194.096 0-418.053 0-418.053s201.562 223.957 0 418.053z" fill="#36c63f"/><path d="M339.135 145.699C313.716 64.736 263.987 8.874 261.882 6.535L256 0l-5.882 6.535c-2.105 2.338-51.835 58.201-77.254 139.164-15.028 47.868-18.28 94.465-9.664 138.497 10.58 54.076 39.142 104.193 84.886 149.014v78.789h15.827V433.21c45.744-44.822 74.306-94.937 84.886-149.014 8.615-44.032 5.364-90.63-9.664-138.497zm-5.923 135.746c-9.118 46.294-32.404 89.659-69.299 129.139V298.785l42.474-42.473-11.191-11.19-31.282 31.283V183.53h-15.827v55.549l-31.283-31.283-11.19 11.19 42.473 42.474v74.668l-23.818-23.819-11.19 11.191 35.009 35.009v52.076c-36.895-39.481-60.182-82.846-69.3-129.14-8.144-41.352-5.107-85.266 9.026-130.524 19.286-61.757 54.313-109.43 68.187-126.74 13.875 17.312 48.9 64.984 68.187 126.741 14.132 45.256 17.169 89.17 9.024 130.523z" fill="#231f20"/><path fill="#fff" d="M248.084 153.668h15.826v14.929h-15.826z"/><path fill="#231f20" d="M248.084 123.81h15.826v14.929h-15.826z"/></svg>