<svg xmlns="http://www.w3.org/2000/svg" viewBox="0 0 60 60"><path d="M47.68 50.5H12.32a2.771 2.771 0 0 1-2.728-2.284L5 22.5h50l-4.592 25.716A2.771 2.771 0 0 1 47.68 50.5z" fill="#e6e6e6"/><path d="M53 22.5H7l8.178-8.178a2.807 2.807 0 0 1 1.985-.822h25.675a2.81 2.81 0 0 1 1.985.822L53 22.5z" fill="#d2d5d7"/><path d="M34 15.5h-8v-2c0-2.206 1.794-4 4-4s4 1.794 4 4v2zm-6-2h4c0-1.103-.897-2-2-2s-2 .897-2 2zm25.848 21.133l-1.982-.266C52.488 29.735 55.833 26.5 60 26.5v2c-3.137 0-5.667 2.522-6.152 6.133zm-47.697-.008C5.696 31.019 3.167 28.5 0 28.5v-2c4.138 0 7.56 3.312 8.135 7.875l-1.984.25z" fill="#d2d5d7"/><path d="M22 46.5H12a1 1 0 1 1 0-2h10a1 1 0 1 1 0 2zm-4-4h-7a1 1 0 1 1 0-2h7a1 1 0 1 1 0 2zm-3-4h-5a1 1 0 1 1 0-2h5a1 1 0 1 1 0 2z" fill="#fff"/><path fill="#e6e6e6" d="M12 17.5h36l-2-2H14zm-3 3h42l-2-2H11z"/></svg>