<svg xmlns="http://www.w3.org/2000/svg" height="20" viewBox="0 0 57 57"><path fill="#659c35" d="M29.841 9.386L26.905 10l-2.867-8.545 5-1.455z"/><path d="M36.143 8.465c1.076-.979 1.893-2.161 2.309-3.554-5.457-2.031-7.156.602-7.156.602-.079-1.069-.888-1.522-1.925-1.628l.471 5.5-2.937.615-.001-.002-1.756-5.234c-.524.264-.877.538-.893.749 0 0-1.7-2.633-7.156-.602.429 1.432 1.266 2.654 2.389 3.647-4.387.621-8.419 2.131-10.449 5.844 10.277 3.075 13.336-1.882 13.336-1.882.623 6.736 5.841 8.725 6.63 9 .789-.275 6.007-2.264 6.63-9 0 0 1.127 4.957 11.405 1.882-2.265-3.739-6.497-5.32-10.897-5.937z" fill="#88c057"/><path d="M45.326 14.923c-.015-.018-.027-.038-.042-.056-8.647 2.023-9.65-2.347-9.65-2.347-.623 6.736-5.841 8.725-6.63 9-.789-.275-6.007-2.264-6.63-9 0 0-2.555 4.06-10.726 2.501l-.055.052.073.015c-2.426 2.44-3.705 6.228-3.705 11.964C7.962 39.874 20.848 57 28.5 57c7.652 0 20.538-17.126 20.538-29.949 0-5.843-1.328-9.664-3.842-12.099.042-.008.088-.02.13-.029z" fill="#e22f37"/><path d="M17.295 20.672c-.122-.391-.675-.391-.796 0 0 0-1.516 5.294-1.516 5.805s.199.992.561 1.354c.361.362.842.561 1.353.561s.992-.199 1.353-.561c.362-.362.561-.842.561-1.354s-1.516-5.805-1.516-5.805zm11.828 4c-.122-.391-.675-.391-.796 0 0 0-1.516 5.294-1.516 5.805s.199.992.561 1.354c.361.362.842.561 1.353.561s.992-.199 1.353-.561c.362-.362.561-.842.561-1.354s-1.516-5.805-1.516-5.805zm11.172-4.012c-.122-.391-.675-.391-.796 0 0 0-1.516 5.294-1.516 5.805s.199.992.561 1.354c.361.362.842.561 1.353.561s.992-.199 1.353-.561c.362-.362.561-.842.561-1.354s-1.516-5.805-1.516-5.805zM22.123 33.685c-.122-.391-.675-.391-.796 0 0 0-1.516 5.294-1.516 5.805s.199.992.561 1.354c.361.362.842.561 1.353.561s.992-.199 1.353-.561c.362-.362.561-.842.561-1.354s-1.516-5.805-1.516-5.805zm7 8.975c-.122-.391-.675-.391-.796 0 0 0-1.516 5.294-1.516 5.805s.199.992.561 1.354c.361.362.842.561 1.353.561s.992-.199 1.353-.561c.362-.362.561-.842.561-1.354s-1.516-5.805-1.516-5.805zm7-8.988c-.122-.391-.675-.391-.796 0 0 0-1.516 5.294-1.516 5.805s.199.992.561 1.354c.361.362.842.561 1.353.561s.992-.199 1.353-.561c.362-.362.561-.842.561-1.354s-1.516-5.805-1.516-5.805z" fill="#994530"/></svg>