<svg xmlns="http://www.w3.org/2000/svg" viewBox="0 0 48 48"><path d="M21.737 28H3.263C1.037 28-.534 25.773.17 23.616 1.459 19.665 2.922 17 7 17h11c4.078 0 5.541 2.665 6.83 6.616.704 2.157-.868 4.384-3.093 4.384z" fill="#e6e6e6"/><path d="M24.959 25.149C24.735 26.713 23.428 28 21.737 28H3.263C1.572 28 .265 26.713.041 25.149c-.022.005-.041.021-.041.05v16.558A5.244 5.244 0 0 0 5.243 47h14.513A5.244 5.244 0 0 0 25 41.757V25.199c0-.029-.019-.045-.041-.05z" fill="#455560"/><ellipse cx="12.5" cy="22.5" rx="5.5" ry="2.5" fill="#d75a4a"/><path d="M33.737 12H15.263c-2.226 0-3.797-2.227-3.093-4.384C13.459 3.665 14.922 1 19 1h11c4.078 0 5.541 2.665 6.83 6.616.704 2.157-.868 4.384-3.093 4.384z" fill="#e6e6e6"/><ellipse cx="24.5" cy="6.5" rx="5.5" ry="2.5" fill="#d75a4a"/><path d="M47.83 23.616C46.541 19.665 43.078 17 39 17H27c-3.248 0-1.836 1.695-3 4.381.297.685.568 1.432.83 2.235a3.355 3.355 0 0 1-.83 3.429 3.176 3.176 0 0 0 2.263.955h18.474c2.225 0 3.797-2.227 3.093-4.384z" fill="#e6e6e6"/><path d="M47.959 25.149C47.735 26.713 46.428 28 44.737 28H26.263c-.454 0-.878-.099-1.263-.265v14.021a5.205 5.205 0 0 1-1 3.059A5.226 5.226 0 0 0 28.243 47h14.513A5.244 5.244 0 0 0 48 41.756V25.199c0-.029-.019-.045-.041-.05zM18 17c3.248 0 4.836 1.695 6 4.381C25.164 18.695 23.752 17 27 17h10V9.199c0-.028-.019-.044-.041-.05C36.735 10.713 35.428 12 33.737 12H15.263c-1.691 0-2.998-1.287-3.222-2.851-.022.005-.041.021-.041.05V17h6z" fill="#38454f"/><ellipse cx="35.5" cy="22.5" rx="5.5" ry="2.5" fill="#d75a4a"/><path d="M5 44a1 1 0 0 1-1-1v-6a1 1 0 1 1 2 0v6a1 1 0 0 1-1 1zm0-9.003a1 1 0 0 1-1-1V31a1 1 0 1 1 2 0v2.997a1 1 0 0 1-1 1zM30 44a1 1 0 0 1-1-1v-6a1 1 0 1 1 2 0v6a1 1 0 0 1-1 1zm0-9.003a1 1 0 0 1-1-1V31a1 1 0 1 1 2 0v2.997a1 1 0 0 1-1 1z" fill="#546a79"/></svg>