<svg xmlns="http://www.w3.org/2000/svg" viewBox="0 0 56.832 56.832"><path d="M7.001 31.345c1.112-1.898 3.893-1.898 5.005 0l2.847 4.858 2.847 4.858c1.112 1.898-.278 4.271-2.503 4.271H3.81c-2.225 0-3.615-2.373-2.503-4.271l2.847-4.858 2.847-4.858z" fill="#455560"/><path fill="#a46f3e" d="M1.916 46.832h54v5h-54z"/><path fill="#4c312c" d="M5.916 51.832h4v5h-4zm42 0h4v5h-4z"/><path d="M28.916 45.332c-4.4 0-8-3.6-8-8v-1c0-4.4 3.6-8 8-8s8 3.6 8 8v1c0 4.4-3.6 8-8 8z" fill="#38454f"/><path d="M53.916 45.332h-12c-1.1 0-2-.9-2-2v-13c0-1.1.9-2 2-2h12c1.1 0 2 .9 2 2v13c0 1.1-.9 2-2 2z" fill="#455560"/><path d="M8.503 34.799c.445-.759 1.558-.759 2.003 0l2.278 5.824c.445.759-.111 1.709-1.001 1.709H7.226c-.89 0-1.446-.949-1.001-1.709l2.278-5.824z" fill="#faf5e5"/><ellipse cx="28.916" cy="36.832" rx="4" ry="4.5" fill="#faf5e5"/><ellipse cx="28.916" cy="36.832" rx="2" ry="1.5" fill="#ed7161"/><path d="M51.916 42.332h-8c-.55 0-1-.45-1-1v-9c0-.55.45-1 1-1h8c.55 0 1 .45 1 1v9c0 .55-.45 1-1 1z" fill="#faf5e5"/><path d="M45.916 36.332a.999.999 0 0 1-.707-1.707l1-1a.999.999 0 1 1 1.414 1.414l-1 1a.997.997 0 0 1-.707.293z" fill="#f1b501"/><path d="M46.916 40.332a.997.997 0 0 1-.707-.293l-1-1a.999.999 0 1 1 1.414-1.414l1 1a.999.999 0 0 1-.707 1.707z" fill="#ed7161"/><path d="M48.916 38.332a.999.999 0 0 1-.707-1.707l1-1a.999.999 0 1 1 1.414 1.414l-1 1a.997.997 0 0 1-.707.293z" fill="#88c057"/><path fill="#a46f3e" d="M50.362.002l1.109 1.664-36.003 24-1.109-1.664z"/><path fill="#c69063" d="M54.623 8.255l.583 1.912-41.385 12.617-.583-1.912z"/></svg>