<svg xmlns="http://www.w3.org/2000/svg" viewBox="0 0 58 58"><path d="M54 49.286s-8.538 6.429-27 6.429-27-6.349-27-6.429h54zm-9-8a1 1 0 1 1 0-2c6.001 0 10.453-3.728 10.953-9H47a1 1 0 1 1 0-2h10a1 1 0 0 1 1 1c0 6.841-5.589 12-13 12z" fill="#d2d5d7"/><path d="M15.943 21.006a.997.997 0 0 1-.707-.293 4.574 4.574 0 0 1-1.35-3.255c0-1.229.479-2.386 1.35-3.256.493-.491.764-1.146.764-1.841s-.271-1.35-.764-1.842a.999.999 0 1 1 1.414-1.414c.87.87 1.35 2.026 1.35 3.256s-.479 2.386-1.35 3.256a2.589 2.589 0 0 0-.764 1.842c0 .694.271 1.349.764 1.841a.999.999 0 0 1-.707 1.706zm22 0a.997.997 0 0 1-.707-.293 4.574 4.574 0 0 1-1.35-3.255c0-1.229.479-2.386 1.35-3.256.493-.491.764-1.146.764-1.841s-.271-1.35-.764-1.842a.999.999 0 1 1 1.414-1.414c.87.87 1.35 2.026 1.35 3.256s-.479 2.386-1.35 3.256a2.589 2.589 0 0 0-.764 1.842c0 .694.271 1.349.764 1.841a.999.999 0 0 1-.707 1.706zm-11.062-3a.997.997 0 0 1-.707-.293 5.81 5.81 0 0 1-1.715-4.137c0-1.563.609-3.031 1.715-4.138a3.828 3.828 0 0 0 1.129-2.723 3.83 3.83 0 0 0-1.129-2.724.999.999 0 1 1 1.414-1.414c1.106 1.106 1.715 2.575 1.715 4.138s-.609 3.031-1.715 4.137a3.828 3.828 0 0 0-1.129 2.724 3.83 3.83 0 0 0 1.129 2.723.999.999 0 0 1-.707 1.707zm-10.443 31.28h21.123C44.646 45.026 48 36.484 48 26.286H6c0 10.198 3.354 18.74 10.438 23z" fill="#e6e6e6"/><path d="M20 36.286a1 1 0 0 1-1-1v-10a1 1 0 1 1 2 0v10a1 1 0 0 1-1 1z" fill="#fbd490"/><path fill="#f9d70b" d="M15.4 33.286h9.2v11.5h-9.2z"/><path fill="#eeaf4b" d="M15.4 40.286h9.2v4.5h-9.2z"/></svg>