<svg xmlns="http://www.w3.org/2000/svg" viewBox="0 0 55 55"><path d="M15 23c-4.963 0-9-4.037-9-9h2c0 3.859 3.141 7 7 7s7-3.141 7-7V9c0-4.963 4.037-9 9-9s9 4.037 9 9h-2c0-3.859-3.141-7-7-7s-7 3.141-7 7v5c0 4.963-4.037 9-9 9z" fill="#d2d5d7"/><path d="M53.786 25.424l-4.902-13.221A3.357 3.357 0 0 0 45.742 10H31.258a3.357 3.357 0 0 0-3.142 2.203l-4.902 13.221A3.408 3.408 0 0 0 23 26.615v24.99C23 53.48 24.503 55 26.356 55h24.288C52.497 55 54 53.48 54 51.606v-24.99a3.41 3.41 0 0 0-.214-1.192zM39 21a3 3 0 1 1 0-6 3 3 0 0 1 0 6z" fill="#e6e6e6"/><path d="M9.453 18H4.547A3.547 3.547 0 0 1 1 14.453V6.547A3.547 3.547 0 0 1 4.547 3h4.905A3.547 3.547 0 0 1 13 6.547v7.905A3.547 3.547 0 0 1 9.453 18z" fill="#fbd490"/><path d="M39 22c-2.206 0-4-1.794-4-4s1.794-4 4-4 4 1.794 4 4-1.794 4-4 4zm0-6c-1.103 0-2 .897-2 2s.897 2 2 2 2-.897 2-2-.897-2-2-2z" fill="#d2d5d7"/><path fill="#d2d5d7" d="M37.999 8.813h2v9.188h-2zm-8.706 43.894L28 51.414l-1.293 1.293-1.414-1.414L28 48.586l2.707 2.707zm7 0L35 51.414l-1.293 1.293-1.414-1.414L35 48.586l2.707 2.707zm7 0L42 51.414l-1.293 1.293-1.414-1.414L42 48.586l2.707 2.707zm7 0L49 51.414l-1.293 1.293-1.414-1.414L49 48.586l2.707 2.707zm-21-10L28 41.414l-1.293 1.293-1.414-1.414L28 38.586l2.707 2.707zm7 0L35 41.414l-1.293 1.293-1.414-1.414L35 38.586l2.707 2.707zm7 0L42 41.414l-1.293 1.293-1.414-1.414L42 38.586l2.707 2.707zm7 0L49 41.414l-1.293 1.293-1.414-1.414L49 38.586l2.707 2.707zm-18 5L31 46.414l-1.293 1.293-1.414-1.414L31 43.586l2.707 2.707zm7 0L38 46.414l-1.293 1.293-1.414-1.414L38 43.586l2.707 2.707zm7 0L45 46.414l-1.293 1.293-1.414-1.414L45 43.586l2.707 2.707zm-14-10L31 36.414l-1.293 1.293-1.414-1.414L31 33.586l2.707 2.707zm7 0L38 36.414l-1.293 1.293-1.414-1.414L38 33.586l2.707 2.707zm7 0L45 36.414l-1.293 1.293-1.414-1.414L45 33.586l2.707 2.707zM54 37v-1.414l-2-2-2.707 2.707 1.414 1.414L52 36.414l1.293 1.293zm0 10v-1.414l-2-2-2.707 2.707 1.414 1.414L52 46.414l1.293 1.293zM24 33.586l-1 1V36l.707.707.293-.293 1.293 1.293 1.414-1.414zm0 10l-1 1V46l.707.707.293-.293 1.293 1.293 1.414-1.414z"/></svg>