<svg xmlns="http://www.w3.org/2000/svg" viewBox="0 0 55.231 55.231"><path d="M42.873 50.116c2.951 0 5.212-3.561 4.545-7.31-2.312-13.001-11.248-22.69-21.919-22.69S5.893 29.804 3.581 42.805c-.667 3.749 1.594 7.31 4.545 7.31h34.747z" fill="#e6e6e6"/><path d="M42.935 30.914L49 23.116h-7l-2.448 3.427a27.135 27.135 0 0 1 3.383 4.371zm-6.04-5.798c.396 0 .583-.504.272-.75-3.402-2.697-7.395-4.25-11.667-4.25s-8.265 1.554-11.667 4.25c-.311.246-.124.75.272.75h22.79z" fill="#38454f"/><path d="M25.5 21.116c-2.481 0-4.5-2.019-4.5-4.5s2.019-4.5 4.5-4.5 4.5 2.019 4.5 4.5-2.019 4.5-4.5 4.5zm0-7c-1.379 0-2.5 1.121-2.5 2.5s1.121 2.5 2.5 2.5 2.5-1.121 2.5-2.5-1.121-2.5-2.5-2.5zM6.319 36.621l-.945-.457C2.06 34.562 0 31.285 0 27.616c0-5.238 4.262-9.5 9.5-9.5 3.026 0 5.9 1.47 7.687 3.932l.65.896-.959.556c-4.264 2.471-7.867 6.787-10.148 12.155l-.411.966zM9.5 20.116c-4.136 0-7.5 3.364-7.5 7.5a7.431 7.431 0 0 0 3.344 6.235c2.271-4.879 5.602-8.885 9.524-11.46A7.518 7.518 0 0 0 9.5 20.116z" fill="#38454f"/><path d="M44.999 20.116a1.001 1.001 0 0 1-.821-1.57l.569-.822a1 1 0 1 1 1.645 1.139l-.569.822c-.195.28-.507.431-.824.431zm2.384-3.443a1.001 1.001 0 0 1-.821-1.57l1.209-1.747a1 1 0 0 1 1.645 1.139l-1.209 1.747a1 1 0 0 1-.824.431zm3.023-4.368a1.001 1.001 0 0 1-.821-1.57l1.209-1.747a1 1 0 0 1 1.645 1.139l-1.209 1.747a1 1 0 0 1-.824.431zm3.024-4.367a1.001 1.001 0 0 1-.821-1.57l.569-.822a1 1 0 0 1 1.645 1.139l-.569.822c-.195.28-.507.431-.824.431zm-4.431 12.178a1.001 1.001 0 0 1-.821-1.57l.569-.822a1 1 0 1 1 1.645 1.139l-.569.822c-.195.28-.507.431-.824.431zm2.104-3.04a1.001 1.001 0 0 1-.821-1.57l1.023-1.478a1 1 0 1 1 1.645 1.139l-1.023 1.478a1.002 1.002 0 0 1-.824.431zm2.557-3.694a1.001 1.001 0 0 1-.821-1.57l.569-.822a1 1 0 0 1 1.645 1.139l-.569.822a1 1 0 0 1-.824.431z" fill="#e6e6e6"/></svg>