<svg xmlns="http://www.w3.org/2000/svg" viewBox="0 0 55 55"><path d="M44.827 8.677C44.098 4.156 40.348.602 35.799.072a10.452 10.452 0 0 0-3.661.213 19.755 19.755 0 0 1-9.228 0 10.535 10.535 0 0 0-4.348-.11c-4.237.766-7.628 4.207-8.332 8.455-.76 4.587 1.145 8.731 4.737 10.8a.212.212 0 0 1 .108.185v4.384h24.892v-4.346c3.819-1.974 5.625-6.234 4.86-10.976z" fill="#fbd490"/><path d="M50 51H5V34.013C5 28.483 9.483 24 15.013 24h24.975C45.517 24 50 28.483 50 34.013V51z" fill="#e6e6e6"/><path d="M10 55a3 3 0 0 1-3-3v-1h6v1a3 3 0 0 1-3 3zm35 0a3 3 0 0 1-3-3v-1h6v1a3 3 0 0 1-3 3zM15 33a1 1 0 0 1-1-1v-3a1 1 0 1 1 2 0v3a1 1 0 0 1-1 1zm0 9a1 1 0 0 1-1-1v-5a1 1 0 1 1 2 0v5a1 1 0 0 1-1 1z" fill="#a5a5a5"/><path fill="#d2d5d7" d="M5 46h45v5H5z"/><path d="M17 36h-4c-1.1 0-2-.9-2-2s.9-2 2-2h4c1.1 0 2 .9 2 2s-.9 2-2 2z" fill="#38454f"/><path d="M16 13a.999.999 0 0 1-.707-1.707l6.5-6.5a.999.999 0 1 1 1.414 1.414l-6.5 6.5A.997.997 0 0 1 16 13zm2 6a.999.999 0 0 1-.707-1.707l14-14a.999.999 0 1 1 1.414 1.414l-14 14A.997.997 0 0 1 18 19zm5 3a.999.999 0 0 1-.707-1.707l15-15a.999.999 0 1 1 1.414 1.414l-15 15A.997.997 0 0 1 23 22zm8 0a.999.999 0 0 1-.707-1.707l7.5-7.5a.999.999 0 1 1 1.414 1.414l-7.5 7.5A.997.997 0 0 1 31 22z" fill="#d8af6f"/></svg>